%TF.GenerationSoftware,KiCad,Pcbnew,(5.1.7)-1*%
%TF.CreationDate,2020-11-01T18:22:08+02:00*%
%TF.ProjectId,Piirilevy_dsp,50696972-696c-4657-9679-5f6473702e6b,rev?*%
%TF.SameCoordinates,Original*%
%TF.FileFunction,Copper,L2,Bot*%
%TF.FilePolarity,Positive*%
%FSLAX46Y46*%
G04 Gerber Fmt 4.6, Leading zero omitted, Abs format (unit mm)*
G04 Created by KiCad (PCBNEW (5.1.7)-1) date 2020-11-01 18:22:08*
%MOMM*%
%LPD*%
G01*
G04 APERTURE LIST*
%TA.AperFunction,ComponentPad*%
%ADD10C,2.000000*%
%TD*%
%TA.AperFunction,ComponentPad*%
%ADD11O,1.700000X1.700000*%
%TD*%
%TA.AperFunction,ComponentPad*%
%ADD12R,1.700000X1.700000*%
%TD*%
%TA.AperFunction,ViaPad*%
%ADD13C,0.600000*%
%TD*%
%TA.AperFunction,ViaPad*%
%ADD14C,0.800000*%
%TD*%
%TA.AperFunction,Conductor*%
%ADD15C,0.500000*%
%TD*%
%TA.AperFunction,Conductor*%
%ADD16C,1.000000*%
%TD*%
%TA.AperFunction,Conductor*%
%ADD17C,0.254000*%
%TD*%
%TA.AperFunction,Conductor*%
%ADD18C,0.100000*%
%TD*%
G04 APERTURE END LIST*
D10*
%TO.P,TP1,1*%
%TO.N,+3V3*%
X132842000Y-74676000D03*
%TD*%
D11*
%TO.P,J4,5*%
%TO.N,GND*%
X154000000Y-101600000D03*
%TO.P,J4,4*%
%TO.N,SCL*%
X154000000Y-99060000D03*
%TO.P,J4,3*%
%TO.N,SDA*%
X154000000Y-96520000D03*
%TO.P,J4,2*%
%TO.N,RESET*%
X154000000Y-93980000D03*
D12*
%TO.P,J4,1*%
%TO.N,WP*%
X154000000Y-91440000D03*
%TD*%
D11*
%TO.P,J3,5*%
%TO.N,GND*%
X140000000Y-101600000D03*
%TO.P,J3,4*%
%TO.N,SCL*%
X140000000Y-99060000D03*
%TO.P,J3,3*%
%TO.N,SDA*%
X140000000Y-96520000D03*
%TO.P,J3,2*%
%TO.N,RESET*%
X140000000Y-93980000D03*
D12*
%TO.P,J3,1*%
%TO.N,WP*%
X140000000Y-91440000D03*
%TD*%
D11*
%TO.P,J2,20*%
%TO.N,Net-(J2-Pad20)*%
X172460000Y-79140000D03*
%TO.P,J2,19*%
%TO.N,Net-(J2-Pad19)*%
X175000000Y-79140000D03*
%TO.P,J2,18*%
%TO.N,Net-(J2-Pad18)*%
X172460000Y-81680000D03*
%TO.P,J2,17*%
%TO.N,Net-(J2-Pad17)*%
X175000000Y-81680000D03*
%TO.P,J2,16*%
%TO.N,Net-(J2-Pad16)*%
X172460000Y-84220000D03*
%TO.P,J2,15*%
%TO.N,Net-(J2-Pad15)*%
X175000000Y-84220000D03*
%TO.P,J2,14*%
%TO.N,Net-(J2-Pad14)*%
X172460000Y-86760000D03*
%TO.P,J2,13*%
%TO.N,Net-(J2-Pad13)*%
X175000000Y-86760000D03*
%TO.P,J2,12*%
%TO.N,GND*%
X172460000Y-89300000D03*
%TO.P,J2,11*%
%TO.N,Net-(J2-Pad11)*%
X175000000Y-89300000D03*
%TO.P,J2,10*%
%TO.N,GND*%
X172460000Y-91840000D03*
%TO.P,J2,9*%
%TO.N,Net-(J2-Pad9)*%
X175000000Y-91840000D03*
%TO.P,J2,8*%
%TO.N,SCL*%
X172460000Y-94380000D03*
%TO.P,J2,7*%
%TO.N,SDA*%
X175000000Y-94380000D03*
%TO.P,J2,6*%
%TO.N,Net-(J2-Pad6)*%
X172460000Y-96920000D03*
%TO.P,J2,5*%
%TO.N,Net-(J2-Pad5)*%
X175000000Y-96920000D03*
%TO.P,J2,4*%
%TO.N,Net-(J2-Pad4)*%
X172460000Y-99460000D03*
%TO.P,J2,3*%
%TO.N,Net-(J2-Pad3)*%
X175000000Y-99460000D03*
%TO.P,J2,2*%
%TO.N,GND*%
X172460000Y-102000000D03*
D12*
%TO.P,J2,1*%
%TO.N,+3.3VA*%
X175000000Y-102000000D03*
%TD*%
D11*
%TO.P,J1,20*%
%TO.N,+3V3*%
X125460000Y-79140000D03*
%TO.P,J1,19*%
%TO.N,Net-(J1-Pad19)*%
X128000000Y-79140000D03*
%TO.P,J1,18*%
%TO.N,GND*%
X125460000Y-81680000D03*
%TO.P,J1,17*%
%TO.N,Net-(J1-Pad17)*%
X128000000Y-81680000D03*
%TO.P,J1,16*%
%TO.N,Net-(J1-Pad16)*%
X125460000Y-84220000D03*
%TO.P,J1,15*%
%TO.N,Net-(J1-Pad15)*%
X128000000Y-84220000D03*
%TO.P,J1,14*%
%TO.N,Net-(J1-Pad14)*%
X125460000Y-86760000D03*
%TO.P,J1,13*%
%TO.N,Net-(J1-Pad13)*%
X128000000Y-86760000D03*
%TO.P,J1,12*%
%TO.N,Net-(J1-Pad12)*%
X125460000Y-89300000D03*
%TO.P,J1,11*%
%TO.N,Net-(J1-Pad11)*%
X128000000Y-89300000D03*
%TO.P,J1,10*%
%TO.N,Net-(J1-Pad10)*%
X125460000Y-91840000D03*
%TO.P,J1,9*%
%TO.N,RESET*%
X128000000Y-91840000D03*
%TO.P,J1,8*%
%TO.N,WP*%
X125460000Y-94380000D03*
%TO.P,J1,7*%
%TO.N,SDA*%
X128000000Y-94380000D03*
%TO.P,J1,6*%
%TO.N,Net-(J1-Pad6)*%
X125460000Y-96920000D03*
%TO.P,J1,5*%
%TO.N,SCL*%
X128000000Y-96920000D03*
%TO.P,J1,4*%
%TO.N,GND*%
X125460000Y-99460000D03*
%TO.P,J1,3*%
%TO.N,Net-(J1-Pad3)*%
X128000000Y-99460000D03*
%TO.P,J1,2*%
%TO.N,GND*%
X125460000Y-102000000D03*
D12*
%TO.P,J1,1*%
%TO.N,Net-(J1-Pad1)*%
X128000000Y-102000000D03*
%TD*%
D13*
%TO.N,SDA*%
X147000000Y-104000000D03*
%TO.N,SCL*%
X147000000Y-105000000D03*
%TO.N,RESET*%
X147000000Y-103000000D03*
%TO.N,WP*%
X147000000Y-102000000D03*
%TO.N,GND*%
X147000000Y-75000000D03*
X147000000Y-77000000D03*
X147000000Y-76000000D03*
X147000000Y-78000000D03*
D14*
X167000000Y-89500000D03*
X170000000Y-95631000D03*
%TO.N,WP*%
X158500000Y-92000000D03*
%TO.N,+3.3VA*%
X160878692Y-93919226D03*
%TD*%
D15*
%TO.N,SCL*%
X156000000Y-97060000D02*
X154000000Y-99060000D01*
X156000000Y-96500000D02*
X156000000Y-97060000D01*
X160000000Y-92500000D02*
X156000000Y-96500000D01*
X164500000Y-92500000D02*
X160000000Y-92500000D01*
X166380000Y-94380000D02*
X164500000Y-92500000D01*
X172460000Y-94380000D02*
X166380000Y-94380000D01*
%TO.N,WP*%
X154060000Y-91500000D02*
X154000000Y-91440000D01*
X154560000Y-92000000D02*
X154000000Y-91440000D01*
X158500000Y-92000000D02*
X154560000Y-92000000D01*
D16*
%TO.N,+3V3*%
X129924000Y-74676000D02*
X132842000Y-74676000D01*
X125460000Y-79140000D02*
X129924000Y-74676000D01*
D15*
%TO.N,+3.3VA*%
X160878692Y-93919226D02*
X160878692Y-103378692D01*
X160878692Y-103378692D02*
X162500000Y-105000000D01*
X162500000Y-105000000D02*
X174000000Y-105000000D01*
X175000000Y-104000000D02*
X175000000Y-102000000D01*
X174000000Y-105000000D02*
X175000000Y-104000000D01*
%TD*%
D17*
%TO.N,GND*%
X145340001Y-73032419D02*
X145343247Y-73065377D01*
X145343247Y-73078367D01*
X145344210Y-73087532D01*
X145365965Y-73281481D01*
X145378397Y-73339966D01*
X145390022Y-73398676D01*
X145392747Y-73407479D01*
X145451760Y-73593509D01*
X145475338Y-73648519D01*
X145498120Y-73703794D01*
X145502503Y-73711900D01*
X145596525Y-73882925D01*
X145630308Y-73932264D01*
X145663423Y-73982106D01*
X145669297Y-73989206D01*
X145794747Y-74138712D01*
X145837477Y-74180557D01*
X145879638Y-74223013D01*
X145886780Y-74228837D01*
X146038879Y-74351128D01*
X146088941Y-74383887D01*
X146138523Y-74417331D01*
X146146660Y-74421657D01*
X146146663Y-74421659D01*
X146146667Y-74421660D01*
X146319615Y-74512077D01*
X146375053Y-74534475D01*
X146430228Y-74557669D01*
X146439050Y-74560332D01*
X146626275Y-74615435D01*
X146684983Y-74626633D01*
X146743628Y-74638672D01*
X146752799Y-74639570D01*
X146947161Y-74657259D01*
X147006943Y-74656842D01*
X147066801Y-74657260D01*
X147075972Y-74656360D01*
X147270069Y-74635959D01*
X147328658Y-74623932D01*
X147387423Y-74612723D01*
X147396245Y-74610059D01*
X147582683Y-74552347D01*
X147637838Y-74529162D01*
X147693291Y-74506758D01*
X147701427Y-74502432D01*
X147873104Y-74409607D01*
X147922699Y-74376154D01*
X147972753Y-74343400D01*
X147979894Y-74337576D01*
X148130272Y-74213172D01*
X148172411Y-74170737D01*
X148215161Y-74128874D01*
X148221034Y-74121773D01*
X148344384Y-73970531D01*
X148377477Y-73920723D01*
X148411284Y-73871349D01*
X148415667Y-73863243D01*
X148507292Y-73690920D01*
X148530090Y-73635608D01*
X148553652Y-73580634D01*
X148556377Y-73571831D01*
X148612786Y-73384994D01*
X148624405Y-73326314D01*
X148636842Y-73267804D01*
X148637805Y-73258639D01*
X148656850Y-73064406D01*
X148656850Y-73064402D01*
X148660000Y-73032419D01*
X148660000Y-71127000D01*
X178491672Y-71127000D01*
X178596257Y-71140769D01*
X178685955Y-71177923D01*
X178762976Y-71237024D01*
X178822077Y-71314045D01*
X178859231Y-71403743D01*
X178873000Y-71508328D01*
X178873000Y-108491672D01*
X178859231Y-108596257D01*
X178822077Y-108685955D01*
X178762976Y-108762976D01*
X178685955Y-108822077D01*
X178596257Y-108859231D01*
X178491672Y-108873000D01*
X148660000Y-108873000D01*
X148660000Y-106967581D01*
X148656753Y-106934613D01*
X148656753Y-106921633D01*
X148655790Y-106912468D01*
X148634035Y-106718518D01*
X148621600Y-106660019D01*
X148609978Y-106601325D01*
X148607253Y-106592522D01*
X148548240Y-106406491D01*
X148524674Y-106351509D01*
X148501880Y-106296206D01*
X148497497Y-106288100D01*
X148403475Y-106117075D01*
X148369702Y-106067752D01*
X148336577Y-106017894D01*
X148330703Y-106010794D01*
X148205253Y-105861288D01*
X148162523Y-105819443D01*
X148120362Y-105776987D01*
X148113220Y-105771163D01*
X147961120Y-105648872D01*
X147911061Y-105616114D01*
X147861477Y-105582669D01*
X147853340Y-105578343D01*
X147853337Y-105578341D01*
X147853333Y-105578340D01*
X147767918Y-105533685D01*
X147828586Y-105442889D01*
X147899068Y-105272729D01*
X147935000Y-105092089D01*
X147935000Y-104907911D01*
X147899068Y-104727271D01*
X147828586Y-104557111D01*
X147790426Y-104500000D01*
X147828586Y-104442889D01*
X147899068Y-104272729D01*
X147935000Y-104092089D01*
X147935000Y-103907911D01*
X147899068Y-103727271D01*
X147828586Y-103557111D01*
X147790426Y-103500000D01*
X147828586Y-103442889D01*
X147899068Y-103272729D01*
X147935000Y-103092089D01*
X147935000Y-102907911D01*
X147899068Y-102727271D01*
X147828586Y-102557111D01*
X147790426Y-102500000D01*
X147828586Y-102442889D01*
X147899068Y-102272729D01*
X147935000Y-102092089D01*
X147935000Y-101956890D01*
X152558524Y-101956890D01*
X152603175Y-102104099D01*
X152728359Y-102366920D01*
X152902412Y-102600269D01*
X153118645Y-102795178D01*
X153368748Y-102944157D01*
X153643109Y-103041481D01*
X153873000Y-102920814D01*
X153873000Y-101727000D01*
X154127000Y-101727000D01*
X154127000Y-102920814D01*
X154356891Y-103041481D01*
X154631252Y-102944157D01*
X154881355Y-102795178D01*
X155097588Y-102600269D01*
X155271641Y-102366920D01*
X155396825Y-102104099D01*
X155441476Y-101956890D01*
X155320155Y-101727000D01*
X154127000Y-101727000D01*
X153873000Y-101727000D01*
X152679845Y-101727000D01*
X152558524Y-101956890D01*
X147935000Y-101956890D01*
X147935000Y-101907911D01*
X147899068Y-101727271D01*
X147828586Y-101557111D01*
X147767999Y-101466437D01*
X147873104Y-101409607D01*
X147922699Y-101376154D01*
X147972753Y-101343400D01*
X147979894Y-101337576D01*
X148130272Y-101213172D01*
X148172411Y-101170737D01*
X148215161Y-101128874D01*
X148221034Y-101121773D01*
X148344384Y-100970531D01*
X148377477Y-100920723D01*
X148411284Y-100871349D01*
X148415667Y-100863243D01*
X148507292Y-100690920D01*
X148530090Y-100635608D01*
X148553652Y-100580634D01*
X148556377Y-100571831D01*
X148612786Y-100384994D01*
X148624405Y-100326314D01*
X148636842Y-100267804D01*
X148637805Y-100258639D01*
X148656850Y-100064406D01*
X148656850Y-100064402D01*
X148660000Y-100032419D01*
X148660000Y-90590000D01*
X152511928Y-90590000D01*
X152511928Y-92290000D01*
X152524188Y-92414482D01*
X152560498Y-92534180D01*
X152619463Y-92644494D01*
X152698815Y-92741185D01*
X152795506Y-92820537D01*
X152905820Y-92879502D01*
X152978380Y-92901513D01*
X152846525Y-93033368D01*
X152684010Y-93276589D01*
X152572068Y-93546842D01*
X152515000Y-93833740D01*
X152515000Y-94126260D01*
X152572068Y-94413158D01*
X152684010Y-94683411D01*
X152846525Y-94926632D01*
X153053368Y-95133475D01*
X153227760Y-95250000D01*
X153053368Y-95366525D01*
X152846525Y-95573368D01*
X152684010Y-95816589D01*
X152572068Y-96086842D01*
X152515000Y-96373740D01*
X152515000Y-96666260D01*
X152572068Y-96953158D01*
X152684010Y-97223411D01*
X152846525Y-97466632D01*
X153053368Y-97673475D01*
X153227760Y-97790000D01*
X153053368Y-97906525D01*
X152846525Y-98113368D01*
X152684010Y-98356589D01*
X152572068Y-98626842D01*
X152515000Y-98913740D01*
X152515000Y-99206260D01*
X152572068Y-99493158D01*
X152684010Y-99763411D01*
X152846525Y-100006632D01*
X153053368Y-100213475D01*
X153235534Y-100335195D01*
X153118645Y-100404822D01*
X152902412Y-100599731D01*
X152728359Y-100833080D01*
X152603175Y-101095901D01*
X152558524Y-101243110D01*
X152679845Y-101473000D01*
X153873000Y-101473000D01*
X153873000Y-101453000D01*
X154127000Y-101453000D01*
X154127000Y-101473000D01*
X155320155Y-101473000D01*
X155441476Y-101243110D01*
X155396825Y-101095901D01*
X155271641Y-100833080D01*
X155097588Y-100599731D01*
X154881355Y-100404822D01*
X154764466Y-100335195D01*
X154946632Y-100213475D01*
X155153475Y-100006632D01*
X155315990Y-99763411D01*
X155427932Y-99493158D01*
X155485000Y-99206260D01*
X155485000Y-98913740D01*
X155470539Y-98841040D01*
X156595049Y-97716530D01*
X156628817Y-97688817D01*
X156739411Y-97554059D01*
X156821589Y-97400313D01*
X156872195Y-97233490D01*
X156885000Y-97103477D01*
X156885000Y-97103467D01*
X156889281Y-97060001D01*
X156885000Y-97016535D01*
X156885000Y-96866578D01*
X159843692Y-93907887D01*
X159843692Y-94021165D01*
X159883466Y-94221124D01*
X159961487Y-94409482D01*
X159993692Y-94457680D01*
X159993693Y-103335213D01*
X159989411Y-103378692D01*
X160006497Y-103552182D01*
X160057104Y-103719005D01*
X160139282Y-103872751D01*
X160222160Y-103973738D01*
X160222163Y-103973741D01*
X160249876Y-104007509D01*
X160283643Y-104035221D01*
X161843470Y-105595049D01*
X161871183Y-105628817D01*
X161904951Y-105656530D01*
X161904953Y-105656532D01*
X161963960Y-105704958D01*
X162005941Y-105739411D01*
X162159687Y-105821589D01*
X162326510Y-105872195D01*
X162456523Y-105885000D01*
X162456531Y-105885000D01*
X162500000Y-105889281D01*
X162543469Y-105885000D01*
X173956531Y-105885000D01*
X174000000Y-105889281D01*
X174043469Y-105885000D01*
X174043477Y-105885000D01*
X174173490Y-105872195D01*
X174340313Y-105821589D01*
X174494059Y-105739411D01*
X174628817Y-105628817D01*
X174656534Y-105595044D01*
X175595050Y-104656529D01*
X175628817Y-104628817D01*
X175739411Y-104494059D01*
X175805089Y-104371183D01*
X175821589Y-104340314D01*
X175872195Y-104173490D01*
X175872399Y-104171414D01*
X175885000Y-104043477D01*
X175885000Y-104043469D01*
X175889281Y-104000000D01*
X175885000Y-103956531D01*
X175885000Y-103484625D01*
X175974482Y-103475812D01*
X176094180Y-103439502D01*
X176204494Y-103380537D01*
X176301185Y-103301185D01*
X176380537Y-103204494D01*
X176439502Y-103094180D01*
X176475812Y-102974482D01*
X176488072Y-102850000D01*
X176488072Y-101150000D01*
X176475812Y-101025518D01*
X176439502Y-100905820D01*
X176380537Y-100795506D01*
X176301185Y-100698815D01*
X176204494Y-100619463D01*
X176094180Y-100560498D01*
X176021620Y-100538487D01*
X176153475Y-100406632D01*
X176315990Y-100163411D01*
X176427932Y-99893158D01*
X176485000Y-99606260D01*
X176485000Y-99313740D01*
X176427932Y-99026842D01*
X176315990Y-98756589D01*
X176153475Y-98513368D01*
X175946632Y-98306525D01*
X175772240Y-98190000D01*
X175946632Y-98073475D01*
X176153475Y-97866632D01*
X176315990Y-97623411D01*
X176427932Y-97353158D01*
X176485000Y-97066260D01*
X176485000Y-96773740D01*
X176427932Y-96486842D01*
X176315990Y-96216589D01*
X176153475Y-95973368D01*
X175946632Y-95766525D01*
X175772240Y-95650000D01*
X175946632Y-95533475D01*
X176153475Y-95326632D01*
X176315990Y-95083411D01*
X176427932Y-94813158D01*
X176485000Y-94526260D01*
X176485000Y-94233740D01*
X176427932Y-93946842D01*
X176315990Y-93676589D01*
X176153475Y-93433368D01*
X175946632Y-93226525D01*
X175772240Y-93110000D01*
X175946632Y-92993475D01*
X176153475Y-92786632D01*
X176315990Y-92543411D01*
X176427932Y-92273158D01*
X176485000Y-91986260D01*
X176485000Y-91693740D01*
X176427932Y-91406842D01*
X176315990Y-91136589D01*
X176153475Y-90893368D01*
X175946632Y-90686525D01*
X175772240Y-90570000D01*
X175946632Y-90453475D01*
X176153475Y-90246632D01*
X176315990Y-90003411D01*
X176427932Y-89733158D01*
X176485000Y-89446260D01*
X176485000Y-89153740D01*
X176427932Y-88866842D01*
X176315990Y-88596589D01*
X176153475Y-88353368D01*
X175946632Y-88146525D01*
X175772240Y-88030000D01*
X175946632Y-87913475D01*
X176153475Y-87706632D01*
X176315990Y-87463411D01*
X176427932Y-87193158D01*
X176485000Y-86906260D01*
X176485000Y-86613740D01*
X176427932Y-86326842D01*
X176315990Y-86056589D01*
X176153475Y-85813368D01*
X175946632Y-85606525D01*
X175772240Y-85490000D01*
X175946632Y-85373475D01*
X176153475Y-85166632D01*
X176315990Y-84923411D01*
X176427932Y-84653158D01*
X176485000Y-84366260D01*
X176485000Y-84073740D01*
X176427932Y-83786842D01*
X176315990Y-83516589D01*
X176153475Y-83273368D01*
X175946632Y-83066525D01*
X175772240Y-82950000D01*
X175946632Y-82833475D01*
X176153475Y-82626632D01*
X176315990Y-82383411D01*
X176427932Y-82113158D01*
X176485000Y-81826260D01*
X176485000Y-81533740D01*
X176427932Y-81246842D01*
X176315990Y-80976589D01*
X176153475Y-80733368D01*
X175946632Y-80526525D01*
X175772240Y-80410000D01*
X175946632Y-80293475D01*
X176153475Y-80086632D01*
X176315990Y-79843411D01*
X176427932Y-79573158D01*
X176485000Y-79286260D01*
X176485000Y-78993740D01*
X176427932Y-78706842D01*
X176315990Y-78436589D01*
X176153475Y-78193368D01*
X175946632Y-77986525D01*
X175703411Y-77824010D01*
X175433158Y-77712068D01*
X175146260Y-77655000D01*
X174853740Y-77655000D01*
X174566842Y-77712068D01*
X174296589Y-77824010D01*
X174053368Y-77986525D01*
X173846525Y-78193368D01*
X173730000Y-78367760D01*
X173613475Y-78193368D01*
X173406632Y-77986525D01*
X173163411Y-77824010D01*
X172893158Y-77712068D01*
X172606260Y-77655000D01*
X172313740Y-77655000D01*
X172026842Y-77712068D01*
X171756589Y-77824010D01*
X171513368Y-77986525D01*
X171306525Y-78193368D01*
X171144010Y-78436589D01*
X171032068Y-78706842D01*
X170975000Y-78993740D01*
X170975000Y-79286260D01*
X171032068Y-79573158D01*
X171144010Y-79843411D01*
X171306525Y-80086632D01*
X171513368Y-80293475D01*
X171687760Y-80410000D01*
X171513368Y-80526525D01*
X171306525Y-80733368D01*
X171144010Y-80976589D01*
X171032068Y-81246842D01*
X170975000Y-81533740D01*
X170975000Y-81826260D01*
X171032068Y-82113158D01*
X171144010Y-82383411D01*
X171306525Y-82626632D01*
X171513368Y-82833475D01*
X171687760Y-82950000D01*
X171513368Y-83066525D01*
X171306525Y-83273368D01*
X171144010Y-83516589D01*
X171032068Y-83786842D01*
X170975000Y-84073740D01*
X170975000Y-84366260D01*
X171032068Y-84653158D01*
X171144010Y-84923411D01*
X171306525Y-85166632D01*
X171513368Y-85373475D01*
X171687760Y-85490000D01*
X171513368Y-85606525D01*
X171306525Y-85813368D01*
X171144010Y-86056589D01*
X171032068Y-86326842D01*
X170975000Y-86613740D01*
X170975000Y-86906260D01*
X171032068Y-87193158D01*
X171144010Y-87463411D01*
X171306525Y-87706632D01*
X171513368Y-87913475D01*
X171695534Y-88035195D01*
X171578645Y-88104822D01*
X171362412Y-88299731D01*
X171188359Y-88533080D01*
X171063175Y-88795901D01*
X171018524Y-88943110D01*
X171139845Y-89173000D01*
X172333000Y-89173000D01*
X172333000Y-89153000D01*
X172587000Y-89153000D01*
X172587000Y-89173000D01*
X172607000Y-89173000D01*
X172607000Y-89427000D01*
X172587000Y-89427000D01*
X172587000Y-91713000D01*
X172607000Y-91713000D01*
X172607000Y-91967000D01*
X172587000Y-91967000D01*
X172587000Y-91987000D01*
X172333000Y-91987000D01*
X172333000Y-91967000D01*
X171139845Y-91967000D01*
X171018524Y-92196890D01*
X171063175Y-92344099D01*
X171188359Y-92606920D01*
X171362412Y-92840269D01*
X171578645Y-93035178D01*
X171695534Y-93104805D01*
X171513368Y-93226525D01*
X171306525Y-93433368D01*
X171265344Y-93495000D01*
X166746579Y-93495000D01*
X165156534Y-91904956D01*
X165128817Y-91871183D01*
X164994059Y-91760589D01*
X164840313Y-91678411D01*
X164673490Y-91627805D01*
X164543477Y-91615000D01*
X164543469Y-91615000D01*
X164500000Y-91610719D01*
X164456531Y-91615000D01*
X160043465Y-91615000D01*
X159999999Y-91610719D01*
X159956533Y-91615000D01*
X159956523Y-91615000D01*
X159826510Y-91627805D01*
X159659687Y-91678411D01*
X159507491Y-91759761D01*
X159495226Y-91698102D01*
X159417205Y-91509744D01*
X159303937Y-91340226D01*
X159159774Y-91196063D01*
X158990256Y-91082795D01*
X158801898Y-91004774D01*
X158601939Y-90965000D01*
X158398061Y-90965000D01*
X158198102Y-91004774D01*
X158009744Y-91082795D01*
X157961546Y-91115000D01*
X155488072Y-91115000D01*
X155488072Y-90590000D01*
X155475812Y-90465518D01*
X155439502Y-90345820D01*
X155380537Y-90235506D01*
X155301185Y-90138815D01*
X155204494Y-90059463D01*
X155094180Y-90000498D01*
X154974482Y-89964188D01*
X154850000Y-89951928D01*
X153150000Y-89951928D01*
X153025518Y-89964188D01*
X152905820Y-90000498D01*
X152795506Y-90059463D01*
X152698815Y-90138815D01*
X152619463Y-90235506D01*
X152560498Y-90345820D01*
X152524188Y-90465518D01*
X152511928Y-90590000D01*
X148660000Y-90590000D01*
X148660000Y-89656890D01*
X171018524Y-89656890D01*
X171063175Y-89804099D01*
X171188359Y-90066920D01*
X171362412Y-90300269D01*
X171578645Y-90495178D01*
X171704255Y-90570000D01*
X171578645Y-90644822D01*
X171362412Y-90839731D01*
X171188359Y-91073080D01*
X171063175Y-91335901D01*
X171018524Y-91483110D01*
X171139845Y-91713000D01*
X172333000Y-91713000D01*
X172333000Y-89427000D01*
X171139845Y-89427000D01*
X171018524Y-89656890D01*
X148660000Y-89656890D01*
X148660000Y-79967581D01*
X148656753Y-79934613D01*
X148656753Y-79921633D01*
X148655790Y-79912468D01*
X148634035Y-79718518D01*
X148621600Y-79660019D01*
X148609978Y-79601325D01*
X148607253Y-79592522D01*
X148548240Y-79406491D01*
X148524674Y-79351509D01*
X148501880Y-79296206D01*
X148497497Y-79288100D01*
X148403475Y-79117075D01*
X148369702Y-79067752D01*
X148336577Y-79017894D01*
X148330703Y-79010794D01*
X148205253Y-78861288D01*
X148162523Y-78819443D01*
X148120362Y-78776987D01*
X148113220Y-78771163D01*
X147961120Y-78648872D01*
X147911061Y-78616114D01*
X147861477Y-78582669D01*
X147853340Y-78578343D01*
X147853337Y-78578341D01*
X147853333Y-78578340D01*
X147680384Y-78487923D01*
X147624972Y-78465535D01*
X147569772Y-78442331D01*
X147560950Y-78439668D01*
X147373724Y-78384565D01*
X147314986Y-78373360D01*
X147256372Y-78361328D01*
X147247200Y-78360429D01*
X147052839Y-78342741D01*
X146993057Y-78343158D01*
X146933199Y-78342740D01*
X146924028Y-78343640D01*
X146729931Y-78364041D01*
X146671348Y-78376066D01*
X146612577Y-78387277D01*
X146603755Y-78389941D01*
X146417317Y-78447653D01*
X146362162Y-78470838D01*
X146306709Y-78493242D01*
X146298573Y-78497568D01*
X146126896Y-78590393D01*
X146077278Y-78623861D01*
X146027247Y-78656600D01*
X146020106Y-78662424D01*
X145869728Y-78786828D01*
X145827589Y-78829263D01*
X145784839Y-78871126D01*
X145778966Y-78878227D01*
X145655616Y-79029469D01*
X145622534Y-79079262D01*
X145588716Y-79128651D01*
X145584333Y-79136757D01*
X145492708Y-79309079D01*
X145469909Y-79364394D01*
X145446348Y-79419366D01*
X145443623Y-79428169D01*
X145387214Y-79615005D01*
X145375594Y-79673693D01*
X145363158Y-79732196D01*
X145362195Y-79741361D01*
X145343150Y-79935595D01*
X145340000Y-79967582D01*
X145340001Y-100032419D01*
X145343247Y-100065377D01*
X145343247Y-100078367D01*
X145344210Y-100087532D01*
X145365965Y-100281481D01*
X145378397Y-100339966D01*
X145390022Y-100398676D01*
X145392747Y-100407479D01*
X145451760Y-100593509D01*
X145475338Y-100648519D01*
X145498120Y-100703794D01*
X145502503Y-100711900D01*
X145596525Y-100882925D01*
X145630308Y-100932264D01*
X145663423Y-100982106D01*
X145669297Y-100989206D01*
X145794747Y-101138712D01*
X145837477Y-101180557D01*
X145879638Y-101223013D01*
X145886780Y-101228837D01*
X146038879Y-101351128D01*
X146088941Y-101383887D01*
X146138523Y-101417331D01*
X146146660Y-101421657D01*
X146146663Y-101421659D01*
X146146667Y-101421660D01*
X146232082Y-101466315D01*
X146171414Y-101557111D01*
X146100932Y-101727271D01*
X146065000Y-101907911D01*
X146065000Y-102092089D01*
X146100932Y-102272729D01*
X146171414Y-102442889D01*
X146209574Y-102500000D01*
X146171414Y-102557111D01*
X146100932Y-102727271D01*
X146065000Y-102907911D01*
X146065000Y-103092089D01*
X146100932Y-103272729D01*
X146171414Y-103442889D01*
X146209574Y-103500000D01*
X146171414Y-103557111D01*
X146100932Y-103727271D01*
X146065000Y-103907911D01*
X146065000Y-104092089D01*
X146100932Y-104272729D01*
X146171414Y-104442889D01*
X146209574Y-104500000D01*
X146171414Y-104557111D01*
X146100932Y-104727271D01*
X146065000Y-104907911D01*
X146065000Y-105092089D01*
X146100932Y-105272729D01*
X146171414Y-105442889D01*
X146232001Y-105533563D01*
X146126896Y-105590393D01*
X146077278Y-105623861D01*
X146027247Y-105656600D01*
X146020106Y-105662424D01*
X145869728Y-105786828D01*
X145827589Y-105829263D01*
X145784839Y-105871126D01*
X145778966Y-105878227D01*
X145655616Y-106029469D01*
X145622534Y-106079262D01*
X145588716Y-106128651D01*
X145584333Y-106136757D01*
X145492708Y-106309079D01*
X145469909Y-106364394D01*
X145446348Y-106419366D01*
X145443623Y-106428169D01*
X145387214Y-106615005D01*
X145375594Y-106673693D01*
X145363158Y-106732196D01*
X145362195Y-106741361D01*
X145343150Y-106935595D01*
X145343150Y-106935608D01*
X145340001Y-106967581D01*
X145340000Y-108873000D01*
X121508328Y-108873000D01*
X121403743Y-108859231D01*
X121314045Y-108822077D01*
X121237024Y-108762976D01*
X121177923Y-108685955D01*
X121140769Y-108596257D01*
X121127000Y-108491672D01*
X121127000Y-102356890D01*
X124018524Y-102356890D01*
X124063175Y-102504099D01*
X124188359Y-102766920D01*
X124362412Y-103000269D01*
X124578645Y-103195178D01*
X124828748Y-103344157D01*
X125103109Y-103441481D01*
X125333000Y-103320814D01*
X125333000Y-102127000D01*
X124139845Y-102127000D01*
X124018524Y-102356890D01*
X121127000Y-102356890D01*
X121127000Y-99816890D01*
X124018524Y-99816890D01*
X124063175Y-99964099D01*
X124188359Y-100226920D01*
X124362412Y-100460269D01*
X124578645Y-100655178D01*
X124704255Y-100730000D01*
X124578645Y-100804822D01*
X124362412Y-100999731D01*
X124188359Y-101233080D01*
X124063175Y-101495901D01*
X124018524Y-101643110D01*
X124139845Y-101873000D01*
X125333000Y-101873000D01*
X125333000Y-99587000D01*
X124139845Y-99587000D01*
X124018524Y-99816890D01*
X121127000Y-99816890D01*
X121127000Y-78993740D01*
X123975000Y-78993740D01*
X123975000Y-79286260D01*
X124032068Y-79573158D01*
X124144010Y-79843411D01*
X124306525Y-80086632D01*
X124513368Y-80293475D01*
X124695534Y-80415195D01*
X124578645Y-80484822D01*
X124362412Y-80679731D01*
X124188359Y-80913080D01*
X124063175Y-81175901D01*
X124018524Y-81323110D01*
X124139845Y-81553000D01*
X125333000Y-81553000D01*
X125333000Y-81533000D01*
X125587000Y-81533000D01*
X125587000Y-81553000D01*
X125607000Y-81553000D01*
X125607000Y-81807000D01*
X125587000Y-81807000D01*
X125587000Y-81827000D01*
X125333000Y-81827000D01*
X125333000Y-81807000D01*
X124139845Y-81807000D01*
X124018524Y-82036890D01*
X124063175Y-82184099D01*
X124188359Y-82446920D01*
X124362412Y-82680269D01*
X124578645Y-82875178D01*
X124695534Y-82944805D01*
X124513368Y-83066525D01*
X124306525Y-83273368D01*
X124144010Y-83516589D01*
X124032068Y-83786842D01*
X123975000Y-84073740D01*
X123975000Y-84366260D01*
X124032068Y-84653158D01*
X124144010Y-84923411D01*
X124306525Y-85166632D01*
X124513368Y-85373475D01*
X124687760Y-85490000D01*
X124513368Y-85606525D01*
X124306525Y-85813368D01*
X124144010Y-86056589D01*
X124032068Y-86326842D01*
X123975000Y-86613740D01*
X123975000Y-86906260D01*
X124032068Y-87193158D01*
X124144010Y-87463411D01*
X124306525Y-87706632D01*
X124513368Y-87913475D01*
X124687760Y-88030000D01*
X124513368Y-88146525D01*
X124306525Y-88353368D01*
X124144010Y-88596589D01*
X124032068Y-88866842D01*
X123975000Y-89153740D01*
X123975000Y-89446260D01*
X124032068Y-89733158D01*
X124144010Y-90003411D01*
X124306525Y-90246632D01*
X124513368Y-90453475D01*
X124687760Y-90570000D01*
X124513368Y-90686525D01*
X124306525Y-90893368D01*
X124144010Y-91136589D01*
X124032068Y-91406842D01*
X123975000Y-91693740D01*
X123975000Y-91986260D01*
X124032068Y-92273158D01*
X124144010Y-92543411D01*
X124306525Y-92786632D01*
X124513368Y-92993475D01*
X124687760Y-93110000D01*
X124513368Y-93226525D01*
X124306525Y-93433368D01*
X124144010Y-93676589D01*
X124032068Y-93946842D01*
X123975000Y-94233740D01*
X123975000Y-94526260D01*
X124032068Y-94813158D01*
X124144010Y-95083411D01*
X124306525Y-95326632D01*
X124513368Y-95533475D01*
X124687760Y-95650000D01*
X124513368Y-95766525D01*
X124306525Y-95973368D01*
X124144010Y-96216589D01*
X124032068Y-96486842D01*
X123975000Y-96773740D01*
X123975000Y-97066260D01*
X124032068Y-97353158D01*
X124144010Y-97623411D01*
X124306525Y-97866632D01*
X124513368Y-98073475D01*
X124695534Y-98195195D01*
X124578645Y-98264822D01*
X124362412Y-98459731D01*
X124188359Y-98693080D01*
X124063175Y-98955901D01*
X124018524Y-99103110D01*
X124139845Y-99333000D01*
X125333000Y-99333000D01*
X125333000Y-99313000D01*
X125587000Y-99313000D01*
X125587000Y-99333000D01*
X125607000Y-99333000D01*
X125607000Y-99587000D01*
X125587000Y-99587000D01*
X125587000Y-101873000D01*
X125607000Y-101873000D01*
X125607000Y-102127000D01*
X125587000Y-102127000D01*
X125587000Y-103320814D01*
X125816891Y-103441481D01*
X126091252Y-103344157D01*
X126341355Y-103195178D01*
X126537502Y-103018374D01*
X126560498Y-103094180D01*
X126619463Y-103204494D01*
X126698815Y-103301185D01*
X126795506Y-103380537D01*
X126905820Y-103439502D01*
X127025518Y-103475812D01*
X127150000Y-103488072D01*
X128850000Y-103488072D01*
X128974482Y-103475812D01*
X129094180Y-103439502D01*
X129204494Y-103380537D01*
X129301185Y-103301185D01*
X129380537Y-103204494D01*
X129439502Y-103094180D01*
X129475812Y-102974482D01*
X129488072Y-102850000D01*
X129488072Y-101956890D01*
X138558524Y-101956890D01*
X138603175Y-102104099D01*
X138728359Y-102366920D01*
X138902412Y-102600269D01*
X139118645Y-102795178D01*
X139368748Y-102944157D01*
X139643109Y-103041481D01*
X139873000Y-102920814D01*
X139873000Y-101727000D01*
X140127000Y-101727000D01*
X140127000Y-102920814D01*
X140356891Y-103041481D01*
X140631252Y-102944157D01*
X140881355Y-102795178D01*
X141097588Y-102600269D01*
X141271641Y-102366920D01*
X141396825Y-102104099D01*
X141441476Y-101956890D01*
X141320155Y-101727000D01*
X140127000Y-101727000D01*
X139873000Y-101727000D01*
X138679845Y-101727000D01*
X138558524Y-101956890D01*
X129488072Y-101956890D01*
X129488072Y-101150000D01*
X129475812Y-101025518D01*
X129439502Y-100905820D01*
X129380537Y-100795506D01*
X129301185Y-100698815D01*
X129204494Y-100619463D01*
X129094180Y-100560498D01*
X129021620Y-100538487D01*
X129153475Y-100406632D01*
X129315990Y-100163411D01*
X129427932Y-99893158D01*
X129485000Y-99606260D01*
X129485000Y-99313740D01*
X129427932Y-99026842D01*
X129315990Y-98756589D01*
X129153475Y-98513368D01*
X128946632Y-98306525D01*
X128772240Y-98190000D01*
X128946632Y-98073475D01*
X129153475Y-97866632D01*
X129315990Y-97623411D01*
X129427932Y-97353158D01*
X129485000Y-97066260D01*
X129485000Y-96773740D01*
X129427932Y-96486842D01*
X129315990Y-96216589D01*
X129153475Y-95973368D01*
X128946632Y-95766525D01*
X128772240Y-95650000D01*
X128946632Y-95533475D01*
X129153475Y-95326632D01*
X129315990Y-95083411D01*
X129427932Y-94813158D01*
X129485000Y-94526260D01*
X129485000Y-94233740D01*
X129427932Y-93946842D01*
X129315990Y-93676589D01*
X129153475Y-93433368D01*
X128946632Y-93226525D01*
X128772240Y-93110000D01*
X128946632Y-92993475D01*
X129153475Y-92786632D01*
X129315990Y-92543411D01*
X129427932Y-92273158D01*
X129485000Y-91986260D01*
X129485000Y-91693740D01*
X129427932Y-91406842D01*
X129315990Y-91136589D01*
X129153475Y-90893368D01*
X128946632Y-90686525D01*
X128802173Y-90590000D01*
X138511928Y-90590000D01*
X138511928Y-92290000D01*
X138524188Y-92414482D01*
X138560498Y-92534180D01*
X138619463Y-92644494D01*
X138698815Y-92741185D01*
X138795506Y-92820537D01*
X138905820Y-92879502D01*
X138978380Y-92901513D01*
X138846525Y-93033368D01*
X138684010Y-93276589D01*
X138572068Y-93546842D01*
X138515000Y-93833740D01*
X138515000Y-94126260D01*
X138572068Y-94413158D01*
X138684010Y-94683411D01*
X138846525Y-94926632D01*
X139053368Y-95133475D01*
X139227760Y-95250000D01*
X139053368Y-95366525D01*
X138846525Y-95573368D01*
X138684010Y-95816589D01*
X138572068Y-96086842D01*
X138515000Y-96373740D01*
X138515000Y-96666260D01*
X138572068Y-96953158D01*
X138684010Y-97223411D01*
X138846525Y-97466632D01*
X139053368Y-97673475D01*
X139227760Y-97790000D01*
X139053368Y-97906525D01*
X138846525Y-98113368D01*
X138684010Y-98356589D01*
X138572068Y-98626842D01*
X138515000Y-98913740D01*
X138515000Y-99206260D01*
X138572068Y-99493158D01*
X138684010Y-99763411D01*
X138846525Y-100006632D01*
X139053368Y-100213475D01*
X139235534Y-100335195D01*
X139118645Y-100404822D01*
X138902412Y-100599731D01*
X138728359Y-100833080D01*
X138603175Y-101095901D01*
X138558524Y-101243110D01*
X138679845Y-101473000D01*
X139873000Y-101473000D01*
X139873000Y-101453000D01*
X140127000Y-101453000D01*
X140127000Y-101473000D01*
X141320155Y-101473000D01*
X141441476Y-101243110D01*
X141396825Y-101095901D01*
X141271641Y-100833080D01*
X141097588Y-100599731D01*
X140881355Y-100404822D01*
X140764466Y-100335195D01*
X140946632Y-100213475D01*
X141153475Y-100006632D01*
X141315990Y-99763411D01*
X141427932Y-99493158D01*
X141485000Y-99206260D01*
X141485000Y-98913740D01*
X141427932Y-98626842D01*
X141315990Y-98356589D01*
X141153475Y-98113368D01*
X140946632Y-97906525D01*
X140772240Y-97790000D01*
X140946632Y-97673475D01*
X141153475Y-97466632D01*
X141315990Y-97223411D01*
X141427932Y-96953158D01*
X141485000Y-96666260D01*
X141485000Y-96373740D01*
X141427932Y-96086842D01*
X141315990Y-95816589D01*
X141153475Y-95573368D01*
X140946632Y-95366525D01*
X140772240Y-95250000D01*
X140946632Y-95133475D01*
X141153475Y-94926632D01*
X141315990Y-94683411D01*
X141427932Y-94413158D01*
X141485000Y-94126260D01*
X141485000Y-93833740D01*
X141427932Y-93546842D01*
X141315990Y-93276589D01*
X141153475Y-93033368D01*
X141021620Y-92901513D01*
X141094180Y-92879502D01*
X141204494Y-92820537D01*
X141301185Y-92741185D01*
X141380537Y-92644494D01*
X141439502Y-92534180D01*
X141475812Y-92414482D01*
X141488072Y-92290000D01*
X141488072Y-90590000D01*
X141475812Y-90465518D01*
X141439502Y-90345820D01*
X141380537Y-90235506D01*
X141301185Y-90138815D01*
X141204494Y-90059463D01*
X141094180Y-90000498D01*
X140974482Y-89964188D01*
X140850000Y-89951928D01*
X139150000Y-89951928D01*
X139025518Y-89964188D01*
X138905820Y-90000498D01*
X138795506Y-90059463D01*
X138698815Y-90138815D01*
X138619463Y-90235506D01*
X138560498Y-90345820D01*
X138524188Y-90465518D01*
X138511928Y-90590000D01*
X128802173Y-90590000D01*
X128772240Y-90570000D01*
X128946632Y-90453475D01*
X129153475Y-90246632D01*
X129315990Y-90003411D01*
X129427932Y-89733158D01*
X129485000Y-89446260D01*
X129485000Y-89153740D01*
X129427932Y-88866842D01*
X129315990Y-88596589D01*
X129153475Y-88353368D01*
X128946632Y-88146525D01*
X128772240Y-88030000D01*
X128946632Y-87913475D01*
X129153475Y-87706632D01*
X129315990Y-87463411D01*
X129427932Y-87193158D01*
X129485000Y-86906260D01*
X129485000Y-86613740D01*
X129427932Y-86326842D01*
X129315990Y-86056589D01*
X129153475Y-85813368D01*
X128946632Y-85606525D01*
X128772240Y-85490000D01*
X128946632Y-85373475D01*
X129153475Y-85166632D01*
X129315990Y-84923411D01*
X129427932Y-84653158D01*
X129485000Y-84366260D01*
X129485000Y-84073740D01*
X129427932Y-83786842D01*
X129315990Y-83516589D01*
X129153475Y-83273368D01*
X128946632Y-83066525D01*
X128772240Y-82950000D01*
X128946632Y-82833475D01*
X129153475Y-82626632D01*
X129315990Y-82383411D01*
X129427932Y-82113158D01*
X129485000Y-81826260D01*
X129485000Y-81533740D01*
X129427932Y-81246842D01*
X129315990Y-80976589D01*
X129153475Y-80733368D01*
X128946632Y-80526525D01*
X128772240Y-80410000D01*
X128946632Y-80293475D01*
X129153475Y-80086632D01*
X129315990Y-79843411D01*
X129427932Y-79573158D01*
X129485000Y-79286260D01*
X129485000Y-78993740D01*
X129427932Y-78706842D01*
X129315990Y-78436589D01*
X129153475Y-78193368D01*
X128946632Y-77986525D01*
X128703411Y-77824010D01*
X128475518Y-77729614D01*
X130394132Y-75811000D01*
X131664761Y-75811000D01*
X131799748Y-75945987D01*
X132067537Y-76124918D01*
X132365088Y-76248168D01*
X132680967Y-76311000D01*
X133003033Y-76311000D01*
X133318912Y-76248168D01*
X133616463Y-76124918D01*
X133884252Y-75945987D01*
X134111987Y-75718252D01*
X134290918Y-75450463D01*
X134414168Y-75152912D01*
X134477000Y-74837033D01*
X134477000Y-74514967D01*
X134414168Y-74199088D01*
X134290918Y-73901537D01*
X134111987Y-73633748D01*
X133884252Y-73406013D01*
X133616463Y-73227082D01*
X133318912Y-73103832D01*
X133003033Y-73041000D01*
X132680967Y-73041000D01*
X132365088Y-73103832D01*
X132067537Y-73227082D01*
X131799748Y-73406013D01*
X131664761Y-73541000D01*
X129979741Y-73541000D01*
X129923999Y-73535510D01*
X129868257Y-73541000D01*
X129868248Y-73541000D01*
X129701501Y-73557423D01*
X129487553Y-73622324D01*
X129290377Y-73727716D01*
X129117551Y-73869551D01*
X129082009Y-73912859D01*
X125339869Y-77655000D01*
X125313740Y-77655000D01*
X125026842Y-77712068D01*
X124756589Y-77824010D01*
X124513368Y-77986525D01*
X124306525Y-78193368D01*
X124144010Y-78436589D01*
X124032068Y-78706842D01*
X123975000Y-78993740D01*
X121127000Y-78993740D01*
X121127000Y-71508328D01*
X121140769Y-71403743D01*
X121177923Y-71314045D01*
X121237024Y-71237024D01*
X121314045Y-71177923D01*
X121403743Y-71140769D01*
X121508328Y-71127000D01*
X145340000Y-71127000D01*
X145340001Y-73032419D01*
%TA.AperFunction,Conductor*%
D18*
G36*
X145340001Y-73032419D02*
G01*
X145343247Y-73065377D01*
X145343247Y-73078367D01*
X145344210Y-73087532D01*
X145365965Y-73281481D01*
X145378397Y-73339966D01*
X145390022Y-73398676D01*
X145392747Y-73407479D01*
X145451760Y-73593509D01*
X145475338Y-73648519D01*
X145498120Y-73703794D01*
X145502503Y-73711900D01*
X145596525Y-73882925D01*
X145630308Y-73932264D01*
X145663423Y-73982106D01*
X145669297Y-73989206D01*
X145794747Y-74138712D01*
X145837477Y-74180557D01*
X145879638Y-74223013D01*
X145886780Y-74228837D01*
X146038879Y-74351128D01*
X146088941Y-74383887D01*
X146138523Y-74417331D01*
X146146660Y-74421657D01*
X146146663Y-74421659D01*
X146146667Y-74421660D01*
X146319615Y-74512077D01*
X146375053Y-74534475D01*
X146430228Y-74557669D01*
X146439050Y-74560332D01*
X146626275Y-74615435D01*
X146684983Y-74626633D01*
X146743628Y-74638672D01*
X146752799Y-74639570D01*
X146947161Y-74657259D01*
X147006943Y-74656842D01*
X147066801Y-74657260D01*
X147075972Y-74656360D01*
X147270069Y-74635959D01*
X147328658Y-74623932D01*
X147387423Y-74612723D01*
X147396245Y-74610059D01*
X147582683Y-74552347D01*
X147637838Y-74529162D01*
X147693291Y-74506758D01*
X147701427Y-74502432D01*
X147873104Y-74409607D01*
X147922699Y-74376154D01*
X147972753Y-74343400D01*
X147979894Y-74337576D01*
X148130272Y-74213172D01*
X148172411Y-74170737D01*
X148215161Y-74128874D01*
X148221034Y-74121773D01*
X148344384Y-73970531D01*
X148377477Y-73920723D01*
X148411284Y-73871349D01*
X148415667Y-73863243D01*
X148507292Y-73690920D01*
X148530090Y-73635608D01*
X148553652Y-73580634D01*
X148556377Y-73571831D01*
X148612786Y-73384994D01*
X148624405Y-73326314D01*
X148636842Y-73267804D01*
X148637805Y-73258639D01*
X148656850Y-73064406D01*
X148656850Y-73064402D01*
X148660000Y-73032419D01*
X148660000Y-71127000D01*
X178491672Y-71127000D01*
X178596257Y-71140769D01*
X178685955Y-71177923D01*
X178762976Y-71237024D01*
X178822077Y-71314045D01*
X178859231Y-71403743D01*
X178873000Y-71508328D01*
X178873000Y-108491672D01*
X178859231Y-108596257D01*
X178822077Y-108685955D01*
X178762976Y-108762976D01*
X178685955Y-108822077D01*
X178596257Y-108859231D01*
X178491672Y-108873000D01*
X148660000Y-108873000D01*
X148660000Y-106967581D01*
X148656753Y-106934613D01*
X148656753Y-106921633D01*
X148655790Y-106912468D01*
X148634035Y-106718518D01*
X148621600Y-106660019D01*
X148609978Y-106601325D01*
X148607253Y-106592522D01*
X148548240Y-106406491D01*
X148524674Y-106351509D01*
X148501880Y-106296206D01*
X148497497Y-106288100D01*
X148403475Y-106117075D01*
X148369702Y-106067752D01*
X148336577Y-106017894D01*
X148330703Y-106010794D01*
X148205253Y-105861288D01*
X148162523Y-105819443D01*
X148120362Y-105776987D01*
X148113220Y-105771163D01*
X147961120Y-105648872D01*
X147911061Y-105616114D01*
X147861477Y-105582669D01*
X147853340Y-105578343D01*
X147853337Y-105578341D01*
X147853333Y-105578340D01*
X147767918Y-105533685D01*
X147828586Y-105442889D01*
X147899068Y-105272729D01*
X147935000Y-105092089D01*
X147935000Y-104907911D01*
X147899068Y-104727271D01*
X147828586Y-104557111D01*
X147790426Y-104500000D01*
X147828586Y-104442889D01*
X147899068Y-104272729D01*
X147935000Y-104092089D01*
X147935000Y-103907911D01*
X147899068Y-103727271D01*
X147828586Y-103557111D01*
X147790426Y-103500000D01*
X147828586Y-103442889D01*
X147899068Y-103272729D01*
X147935000Y-103092089D01*
X147935000Y-102907911D01*
X147899068Y-102727271D01*
X147828586Y-102557111D01*
X147790426Y-102500000D01*
X147828586Y-102442889D01*
X147899068Y-102272729D01*
X147935000Y-102092089D01*
X147935000Y-101956890D01*
X152558524Y-101956890D01*
X152603175Y-102104099D01*
X152728359Y-102366920D01*
X152902412Y-102600269D01*
X153118645Y-102795178D01*
X153368748Y-102944157D01*
X153643109Y-103041481D01*
X153873000Y-102920814D01*
X153873000Y-101727000D01*
X154127000Y-101727000D01*
X154127000Y-102920814D01*
X154356891Y-103041481D01*
X154631252Y-102944157D01*
X154881355Y-102795178D01*
X155097588Y-102600269D01*
X155271641Y-102366920D01*
X155396825Y-102104099D01*
X155441476Y-101956890D01*
X155320155Y-101727000D01*
X154127000Y-101727000D01*
X153873000Y-101727000D01*
X152679845Y-101727000D01*
X152558524Y-101956890D01*
X147935000Y-101956890D01*
X147935000Y-101907911D01*
X147899068Y-101727271D01*
X147828586Y-101557111D01*
X147767999Y-101466437D01*
X147873104Y-101409607D01*
X147922699Y-101376154D01*
X147972753Y-101343400D01*
X147979894Y-101337576D01*
X148130272Y-101213172D01*
X148172411Y-101170737D01*
X148215161Y-101128874D01*
X148221034Y-101121773D01*
X148344384Y-100970531D01*
X148377477Y-100920723D01*
X148411284Y-100871349D01*
X148415667Y-100863243D01*
X148507292Y-100690920D01*
X148530090Y-100635608D01*
X148553652Y-100580634D01*
X148556377Y-100571831D01*
X148612786Y-100384994D01*
X148624405Y-100326314D01*
X148636842Y-100267804D01*
X148637805Y-100258639D01*
X148656850Y-100064406D01*
X148656850Y-100064402D01*
X148660000Y-100032419D01*
X148660000Y-90590000D01*
X152511928Y-90590000D01*
X152511928Y-92290000D01*
X152524188Y-92414482D01*
X152560498Y-92534180D01*
X152619463Y-92644494D01*
X152698815Y-92741185D01*
X152795506Y-92820537D01*
X152905820Y-92879502D01*
X152978380Y-92901513D01*
X152846525Y-93033368D01*
X152684010Y-93276589D01*
X152572068Y-93546842D01*
X152515000Y-93833740D01*
X152515000Y-94126260D01*
X152572068Y-94413158D01*
X152684010Y-94683411D01*
X152846525Y-94926632D01*
X153053368Y-95133475D01*
X153227760Y-95250000D01*
X153053368Y-95366525D01*
X152846525Y-95573368D01*
X152684010Y-95816589D01*
X152572068Y-96086842D01*
X152515000Y-96373740D01*
X152515000Y-96666260D01*
X152572068Y-96953158D01*
X152684010Y-97223411D01*
X152846525Y-97466632D01*
X153053368Y-97673475D01*
X153227760Y-97790000D01*
X153053368Y-97906525D01*
X152846525Y-98113368D01*
X152684010Y-98356589D01*
X152572068Y-98626842D01*
X152515000Y-98913740D01*
X152515000Y-99206260D01*
X152572068Y-99493158D01*
X152684010Y-99763411D01*
X152846525Y-100006632D01*
X153053368Y-100213475D01*
X153235534Y-100335195D01*
X153118645Y-100404822D01*
X152902412Y-100599731D01*
X152728359Y-100833080D01*
X152603175Y-101095901D01*
X152558524Y-101243110D01*
X152679845Y-101473000D01*
X153873000Y-101473000D01*
X153873000Y-101453000D01*
X154127000Y-101453000D01*
X154127000Y-101473000D01*
X155320155Y-101473000D01*
X155441476Y-101243110D01*
X155396825Y-101095901D01*
X155271641Y-100833080D01*
X155097588Y-100599731D01*
X154881355Y-100404822D01*
X154764466Y-100335195D01*
X154946632Y-100213475D01*
X155153475Y-100006632D01*
X155315990Y-99763411D01*
X155427932Y-99493158D01*
X155485000Y-99206260D01*
X155485000Y-98913740D01*
X155470539Y-98841040D01*
X156595049Y-97716530D01*
X156628817Y-97688817D01*
X156739411Y-97554059D01*
X156821589Y-97400313D01*
X156872195Y-97233490D01*
X156885000Y-97103477D01*
X156885000Y-97103467D01*
X156889281Y-97060001D01*
X156885000Y-97016535D01*
X156885000Y-96866578D01*
X159843692Y-93907887D01*
X159843692Y-94021165D01*
X159883466Y-94221124D01*
X159961487Y-94409482D01*
X159993692Y-94457680D01*
X159993693Y-103335213D01*
X159989411Y-103378692D01*
X160006497Y-103552182D01*
X160057104Y-103719005D01*
X160139282Y-103872751D01*
X160222160Y-103973738D01*
X160222163Y-103973741D01*
X160249876Y-104007509D01*
X160283643Y-104035221D01*
X161843470Y-105595049D01*
X161871183Y-105628817D01*
X161904951Y-105656530D01*
X161904953Y-105656532D01*
X161963960Y-105704958D01*
X162005941Y-105739411D01*
X162159687Y-105821589D01*
X162326510Y-105872195D01*
X162456523Y-105885000D01*
X162456531Y-105885000D01*
X162500000Y-105889281D01*
X162543469Y-105885000D01*
X173956531Y-105885000D01*
X174000000Y-105889281D01*
X174043469Y-105885000D01*
X174043477Y-105885000D01*
X174173490Y-105872195D01*
X174340313Y-105821589D01*
X174494059Y-105739411D01*
X174628817Y-105628817D01*
X174656534Y-105595044D01*
X175595050Y-104656529D01*
X175628817Y-104628817D01*
X175739411Y-104494059D01*
X175805089Y-104371183D01*
X175821589Y-104340314D01*
X175872195Y-104173490D01*
X175872399Y-104171414D01*
X175885000Y-104043477D01*
X175885000Y-104043469D01*
X175889281Y-104000000D01*
X175885000Y-103956531D01*
X175885000Y-103484625D01*
X175974482Y-103475812D01*
X176094180Y-103439502D01*
X176204494Y-103380537D01*
X176301185Y-103301185D01*
X176380537Y-103204494D01*
X176439502Y-103094180D01*
X176475812Y-102974482D01*
X176488072Y-102850000D01*
X176488072Y-101150000D01*
X176475812Y-101025518D01*
X176439502Y-100905820D01*
X176380537Y-100795506D01*
X176301185Y-100698815D01*
X176204494Y-100619463D01*
X176094180Y-100560498D01*
X176021620Y-100538487D01*
X176153475Y-100406632D01*
X176315990Y-100163411D01*
X176427932Y-99893158D01*
X176485000Y-99606260D01*
X176485000Y-99313740D01*
X176427932Y-99026842D01*
X176315990Y-98756589D01*
X176153475Y-98513368D01*
X175946632Y-98306525D01*
X175772240Y-98190000D01*
X175946632Y-98073475D01*
X176153475Y-97866632D01*
X176315990Y-97623411D01*
X176427932Y-97353158D01*
X176485000Y-97066260D01*
X176485000Y-96773740D01*
X176427932Y-96486842D01*
X176315990Y-96216589D01*
X176153475Y-95973368D01*
X175946632Y-95766525D01*
X175772240Y-95650000D01*
X175946632Y-95533475D01*
X176153475Y-95326632D01*
X176315990Y-95083411D01*
X176427932Y-94813158D01*
X176485000Y-94526260D01*
X176485000Y-94233740D01*
X176427932Y-93946842D01*
X176315990Y-93676589D01*
X176153475Y-93433368D01*
X175946632Y-93226525D01*
X175772240Y-93110000D01*
X175946632Y-92993475D01*
X176153475Y-92786632D01*
X176315990Y-92543411D01*
X176427932Y-92273158D01*
X176485000Y-91986260D01*
X176485000Y-91693740D01*
X176427932Y-91406842D01*
X176315990Y-91136589D01*
X176153475Y-90893368D01*
X175946632Y-90686525D01*
X175772240Y-90570000D01*
X175946632Y-90453475D01*
X176153475Y-90246632D01*
X176315990Y-90003411D01*
X176427932Y-89733158D01*
X176485000Y-89446260D01*
X176485000Y-89153740D01*
X176427932Y-88866842D01*
X176315990Y-88596589D01*
X176153475Y-88353368D01*
X175946632Y-88146525D01*
X175772240Y-88030000D01*
X175946632Y-87913475D01*
X176153475Y-87706632D01*
X176315990Y-87463411D01*
X176427932Y-87193158D01*
X176485000Y-86906260D01*
X176485000Y-86613740D01*
X176427932Y-86326842D01*
X176315990Y-86056589D01*
X176153475Y-85813368D01*
X175946632Y-85606525D01*
X175772240Y-85490000D01*
X175946632Y-85373475D01*
X176153475Y-85166632D01*
X176315990Y-84923411D01*
X176427932Y-84653158D01*
X176485000Y-84366260D01*
X176485000Y-84073740D01*
X176427932Y-83786842D01*
X176315990Y-83516589D01*
X176153475Y-83273368D01*
X175946632Y-83066525D01*
X175772240Y-82950000D01*
X175946632Y-82833475D01*
X176153475Y-82626632D01*
X176315990Y-82383411D01*
X176427932Y-82113158D01*
X176485000Y-81826260D01*
X176485000Y-81533740D01*
X176427932Y-81246842D01*
X176315990Y-80976589D01*
X176153475Y-80733368D01*
X175946632Y-80526525D01*
X175772240Y-80410000D01*
X175946632Y-80293475D01*
X176153475Y-80086632D01*
X176315990Y-79843411D01*
X176427932Y-79573158D01*
X176485000Y-79286260D01*
X176485000Y-78993740D01*
X176427932Y-78706842D01*
X176315990Y-78436589D01*
X176153475Y-78193368D01*
X175946632Y-77986525D01*
X175703411Y-77824010D01*
X175433158Y-77712068D01*
X175146260Y-77655000D01*
X174853740Y-77655000D01*
X174566842Y-77712068D01*
X174296589Y-77824010D01*
X174053368Y-77986525D01*
X173846525Y-78193368D01*
X173730000Y-78367760D01*
X173613475Y-78193368D01*
X173406632Y-77986525D01*
X173163411Y-77824010D01*
X172893158Y-77712068D01*
X172606260Y-77655000D01*
X172313740Y-77655000D01*
X172026842Y-77712068D01*
X171756589Y-77824010D01*
X171513368Y-77986525D01*
X171306525Y-78193368D01*
X171144010Y-78436589D01*
X171032068Y-78706842D01*
X170975000Y-78993740D01*
X170975000Y-79286260D01*
X171032068Y-79573158D01*
X171144010Y-79843411D01*
X171306525Y-80086632D01*
X171513368Y-80293475D01*
X171687760Y-80410000D01*
X171513368Y-80526525D01*
X171306525Y-80733368D01*
X171144010Y-80976589D01*
X171032068Y-81246842D01*
X170975000Y-81533740D01*
X170975000Y-81826260D01*
X171032068Y-82113158D01*
X171144010Y-82383411D01*
X171306525Y-82626632D01*
X171513368Y-82833475D01*
X171687760Y-82950000D01*
X171513368Y-83066525D01*
X171306525Y-83273368D01*
X171144010Y-83516589D01*
X171032068Y-83786842D01*
X170975000Y-84073740D01*
X170975000Y-84366260D01*
X171032068Y-84653158D01*
X171144010Y-84923411D01*
X171306525Y-85166632D01*
X171513368Y-85373475D01*
X171687760Y-85490000D01*
X171513368Y-85606525D01*
X171306525Y-85813368D01*
X171144010Y-86056589D01*
X171032068Y-86326842D01*
X170975000Y-86613740D01*
X170975000Y-86906260D01*
X171032068Y-87193158D01*
X171144010Y-87463411D01*
X171306525Y-87706632D01*
X171513368Y-87913475D01*
X171695534Y-88035195D01*
X171578645Y-88104822D01*
X171362412Y-88299731D01*
X171188359Y-88533080D01*
X171063175Y-88795901D01*
X171018524Y-88943110D01*
X171139845Y-89173000D01*
X172333000Y-89173000D01*
X172333000Y-89153000D01*
X172587000Y-89153000D01*
X172587000Y-89173000D01*
X172607000Y-89173000D01*
X172607000Y-89427000D01*
X172587000Y-89427000D01*
X172587000Y-91713000D01*
X172607000Y-91713000D01*
X172607000Y-91967000D01*
X172587000Y-91967000D01*
X172587000Y-91987000D01*
X172333000Y-91987000D01*
X172333000Y-91967000D01*
X171139845Y-91967000D01*
X171018524Y-92196890D01*
X171063175Y-92344099D01*
X171188359Y-92606920D01*
X171362412Y-92840269D01*
X171578645Y-93035178D01*
X171695534Y-93104805D01*
X171513368Y-93226525D01*
X171306525Y-93433368D01*
X171265344Y-93495000D01*
X166746579Y-93495000D01*
X165156534Y-91904956D01*
X165128817Y-91871183D01*
X164994059Y-91760589D01*
X164840313Y-91678411D01*
X164673490Y-91627805D01*
X164543477Y-91615000D01*
X164543469Y-91615000D01*
X164500000Y-91610719D01*
X164456531Y-91615000D01*
X160043465Y-91615000D01*
X159999999Y-91610719D01*
X159956533Y-91615000D01*
X159956523Y-91615000D01*
X159826510Y-91627805D01*
X159659687Y-91678411D01*
X159507491Y-91759761D01*
X159495226Y-91698102D01*
X159417205Y-91509744D01*
X159303937Y-91340226D01*
X159159774Y-91196063D01*
X158990256Y-91082795D01*
X158801898Y-91004774D01*
X158601939Y-90965000D01*
X158398061Y-90965000D01*
X158198102Y-91004774D01*
X158009744Y-91082795D01*
X157961546Y-91115000D01*
X155488072Y-91115000D01*
X155488072Y-90590000D01*
X155475812Y-90465518D01*
X155439502Y-90345820D01*
X155380537Y-90235506D01*
X155301185Y-90138815D01*
X155204494Y-90059463D01*
X155094180Y-90000498D01*
X154974482Y-89964188D01*
X154850000Y-89951928D01*
X153150000Y-89951928D01*
X153025518Y-89964188D01*
X152905820Y-90000498D01*
X152795506Y-90059463D01*
X152698815Y-90138815D01*
X152619463Y-90235506D01*
X152560498Y-90345820D01*
X152524188Y-90465518D01*
X152511928Y-90590000D01*
X148660000Y-90590000D01*
X148660000Y-89656890D01*
X171018524Y-89656890D01*
X171063175Y-89804099D01*
X171188359Y-90066920D01*
X171362412Y-90300269D01*
X171578645Y-90495178D01*
X171704255Y-90570000D01*
X171578645Y-90644822D01*
X171362412Y-90839731D01*
X171188359Y-91073080D01*
X171063175Y-91335901D01*
X171018524Y-91483110D01*
X171139845Y-91713000D01*
X172333000Y-91713000D01*
X172333000Y-89427000D01*
X171139845Y-89427000D01*
X171018524Y-89656890D01*
X148660000Y-89656890D01*
X148660000Y-79967581D01*
X148656753Y-79934613D01*
X148656753Y-79921633D01*
X148655790Y-79912468D01*
X148634035Y-79718518D01*
X148621600Y-79660019D01*
X148609978Y-79601325D01*
X148607253Y-79592522D01*
X148548240Y-79406491D01*
X148524674Y-79351509D01*
X148501880Y-79296206D01*
X148497497Y-79288100D01*
X148403475Y-79117075D01*
X148369702Y-79067752D01*
X148336577Y-79017894D01*
X148330703Y-79010794D01*
X148205253Y-78861288D01*
X148162523Y-78819443D01*
X148120362Y-78776987D01*
X148113220Y-78771163D01*
X147961120Y-78648872D01*
X147911061Y-78616114D01*
X147861477Y-78582669D01*
X147853340Y-78578343D01*
X147853337Y-78578341D01*
X147853333Y-78578340D01*
X147680384Y-78487923D01*
X147624972Y-78465535D01*
X147569772Y-78442331D01*
X147560950Y-78439668D01*
X147373724Y-78384565D01*
X147314986Y-78373360D01*
X147256372Y-78361328D01*
X147247200Y-78360429D01*
X147052839Y-78342741D01*
X146993057Y-78343158D01*
X146933199Y-78342740D01*
X146924028Y-78343640D01*
X146729931Y-78364041D01*
X146671348Y-78376066D01*
X146612577Y-78387277D01*
X146603755Y-78389941D01*
X146417317Y-78447653D01*
X146362162Y-78470838D01*
X146306709Y-78493242D01*
X146298573Y-78497568D01*
X146126896Y-78590393D01*
X146077278Y-78623861D01*
X146027247Y-78656600D01*
X146020106Y-78662424D01*
X145869728Y-78786828D01*
X145827589Y-78829263D01*
X145784839Y-78871126D01*
X145778966Y-78878227D01*
X145655616Y-79029469D01*
X145622534Y-79079262D01*
X145588716Y-79128651D01*
X145584333Y-79136757D01*
X145492708Y-79309079D01*
X145469909Y-79364394D01*
X145446348Y-79419366D01*
X145443623Y-79428169D01*
X145387214Y-79615005D01*
X145375594Y-79673693D01*
X145363158Y-79732196D01*
X145362195Y-79741361D01*
X145343150Y-79935595D01*
X145340000Y-79967582D01*
X145340001Y-100032419D01*
X145343247Y-100065377D01*
X145343247Y-100078367D01*
X145344210Y-100087532D01*
X145365965Y-100281481D01*
X145378397Y-100339966D01*
X145390022Y-100398676D01*
X145392747Y-100407479D01*
X145451760Y-100593509D01*
X145475338Y-100648519D01*
X145498120Y-100703794D01*
X145502503Y-100711900D01*
X145596525Y-100882925D01*
X145630308Y-100932264D01*
X145663423Y-100982106D01*
X145669297Y-100989206D01*
X145794747Y-101138712D01*
X145837477Y-101180557D01*
X145879638Y-101223013D01*
X145886780Y-101228837D01*
X146038879Y-101351128D01*
X146088941Y-101383887D01*
X146138523Y-101417331D01*
X146146660Y-101421657D01*
X146146663Y-101421659D01*
X146146667Y-101421660D01*
X146232082Y-101466315D01*
X146171414Y-101557111D01*
X146100932Y-101727271D01*
X146065000Y-101907911D01*
X146065000Y-102092089D01*
X146100932Y-102272729D01*
X146171414Y-102442889D01*
X146209574Y-102500000D01*
X146171414Y-102557111D01*
X146100932Y-102727271D01*
X146065000Y-102907911D01*
X146065000Y-103092089D01*
X146100932Y-103272729D01*
X146171414Y-103442889D01*
X146209574Y-103500000D01*
X146171414Y-103557111D01*
X146100932Y-103727271D01*
X146065000Y-103907911D01*
X146065000Y-104092089D01*
X146100932Y-104272729D01*
X146171414Y-104442889D01*
X146209574Y-104500000D01*
X146171414Y-104557111D01*
X146100932Y-104727271D01*
X146065000Y-104907911D01*
X146065000Y-105092089D01*
X146100932Y-105272729D01*
X146171414Y-105442889D01*
X146232001Y-105533563D01*
X146126896Y-105590393D01*
X146077278Y-105623861D01*
X146027247Y-105656600D01*
X146020106Y-105662424D01*
X145869728Y-105786828D01*
X145827589Y-105829263D01*
X145784839Y-105871126D01*
X145778966Y-105878227D01*
X145655616Y-106029469D01*
X145622534Y-106079262D01*
X145588716Y-106128651D01*
X145584333Y-106136757D01*
X145492708Y-106309079D01*
X145469909Y-106364394D01*
X145446348Y-106419366D01*
X145443623Y-106428169D01*
X145387214Y-106615005D01*
X145375594Y-106673693D01*
X145363158Y-106732196D01*
X145362195Y-106741361D01*
X145343150Y-106935595D01*
X145343150Y-106935608D01*
X145340001Y-106967581D01*
X145340000Y-108873000D01*
X121508328Y-108873000D01*
X121403743Y-108859231D01*
X121314045Y-108822077D01*
X121237024Y-108762976D01*
X121177923Y-108685955D01*
X121140769Y-108596257D01*
X121127000Y-108491672D01*
X121127000Y-102356890D01*
X124018524Y-102356890D01*
X124063175Y-102504099D01*
X124188359Y-102766920D01*
X124362412Y-103000269D01*
X124578645Y-103195178D01*
X124828748Y-103344157D01*
X125103109Y-103441481D01*
X125333000Y-103320814D01*
X125333000Y-102127000D01*
X124139845Y-102127000D01*
X124018524Y-102356890D01*
X121127000Y-102356890D01*
X121127000Y-99816890D01*
X124018524Y-99816890D01*
X124063175Y-99964099D01*
X124188359Y-100226920D01*
X124362412Y-100460269D01*
X124578645Y-100655178D01*
X124704255Y-100730000D01*
X124578645Y-100804822D01*
X124362412Y-100999731D01*
X124188359Y-101233080D01*
X124063175Y-101495901D01*
X124018524Y-101643110D01*
X124139845Y-101873000D01*
X125333000Y-101873000D01*
X125333000Y-99587000D01*
X124139845Y-99587000D01*
X124018524Y-99816890D01*
X121127000Y-99816890D01*
X121127000Y-78993740D01*
X123975000Y-78993740D01*
X123975000Y-79286260D01*
X124032068Y-79573158D01*
X124144010Y-79843411D01*
X124306525Y-80086632D01*
X124513368Y-80293475D01*
X124695534Y-80415195D01*
X124578645Y-80484822D01*
X124362412Y-80679731D01*
X124188359Y-80913080D01*
X124063175Y-81175901D01*
X124018524Y-81323110D01*
X124139845Y-81553000D01*
X125333000Y-81553000D01*
X125333000Y-81533000D01*
X125587000Y-81533000D01*
X125587000Y-81553000D01*
X125607000Y-81553000D01*
X125607000Y-81807000D01*
X125587000Y-81807000D01*
X125587000Y-81827000D01*
X125333000Y-81827000D01*
X125333000Y-81807000D01*
X124139845Y-81807000D01*
X124018524Y-82036890D01*
X124063175Y-82184099D01*
X124188359Y-82446920D01*
X124362412Y-82680269D01*
X124578645Y-82875178D01*
X124695534Y-82944805D01*
X124513368Y-83066525D01*
X124306525Y-83273368D01*
X124144010Y-83516589D01*
X124032068Y-83786842D01*
X123975000Y-84073740D01*
X123975000Y-84366260D01*
X124032068Y-84653158D01*
X124144010Y-84923411D01*
X124306525Y-85166632D01*
X124513368Y-85373475D01*
X124687760Y-85490000D01*
X124513368Y-85606525D01*
X124306525Y-85813368D01*
X124144010Y-86056589D01*
X124032068Y-86326842D01*
X123975000Y-86613740D01*
X123975000Y-86906260D01*
X124032068Y-87193158D01*
X124144010Y-87463411D01*
X124306525Y-87706632D01*
X124513368Y-87913475D01*
X124687760Y-88030000D01*
X124513368Y-88146525D01*
X124306525Y-88353368D01*
X124144010Y-88596589D01*
X124032068Y-88866842D01*
X123975000Y-89153740D01*
X123975000Y-89446260D01*
X124032068Y-89733158D01*
X124144010Y-90003411D01*
X124306525Y-90246632D01*
X124513368Y-90453475D01*
X124687760Y-90570000D01*
X124513368Y-90686525D01*
X124306525Y-90893368D01*
X124144010Y-91136589D01*
X124032068Y-91406842D01*
X123975000Y-91693740D01*
X123975000Y-91986260D01*
X124032068Y-92273158D01*
X124144010Y-92543411D01*
X124306525Y-92786632D01*
X124513368Y-92993475D01*
X124687760Y-93110000D01*
X124513368Y-93226525D01*
X124306525Y-93433368D01*
X124144010Y-93676589D01*
X124032068Y-93946842D01*
X123975000Y-94233740D01*
X123975000Y-94526260D01*
X124032068Y-94813158D01*
X124144010Y-95083411D01*
X124306525Y-95326632D01*
X124513368Y-95533475D01*
X124687760Y-95650000D01*
X124513368Y-95766525D01*
X124306525Y-95973368D01*
X124144010Y-96216589D01*
X124032068Y-96486842D01*
X123975000Y-96773740D01*
X123975000Y-97066260D01*
X124032068Y-97353158D01*
X124144010Y-97623411D01*
X124306525Y-97866632D01*
X124513368Y-98073475D01*
X124695534Y-98195195D01*
X124578645Y-98264822D01*
X124362412Y-98459731D01*
X124188359Y-98693080D01*
X124063175Y-98955901D01*
X124018524Y-99103110D01*
X124139845Y-99333000D01*
X125333000Y-99333000D01*
X125333000Y-99313000D01*
X125587000Y-99313000D01*
X125587000Y-99333000D01*
X125607000Y-99333000D01*
X125607000Y-99587000D01*
X125587000Y-99587000D01*
X125587000Y-101873000D01*
X125607000Y-101873000D01*
X125607000Y-102127000D01*
X125587000Y-102127000D01*
X125587000Y-103320814D01*
X125816891Y-103441481D01*
X126091252Y-103344157D01*
X126341355Y-103195178D01*
X126537502Y-103018374D01*
X126560498Y-103094180D01*
X126619463Y-103204494D01*
X126698815Y-103301185D01*
X126795506Y-103380537D01*
X126905820Y-103439502D01*
X127025518Y-103475812D01*
X127150000Y-103488072D01*
X128850000Y-103488072D01*
X128974482Y-103475812D01*
X129094180Y-103439502D01*
X129204494Y-103380537D01*
X129301185Y-103301185D01*
X129380537Y-103204494D01*
X129439502Y-103094180D01*
X129475812Y-102974482D01*
X129488072Y-102850000D01*
X129488072Y-101956890D01*
X138558524Y-101956890D01*
X138603175Y-102104099D01*
X138728359Y-102366920D01*
X138902412Y-102600269D01*
X139118645Y-102795178D01*
X139368748Y-102944157D01*
X139643109Y-103041481D01*
X139873000Y-102920814D01*
X139873000Y-101727000D01*
X140127000Y-101727000D01*
X140127000Y-102920814D01*
X140356891Y-103041481D01*
X140631252Y-102944157D01*
X140881355Y-102795178D01*
X141097588Y-102600269D01*
X141271641Y-102366920D01*
X141396825Y-102104099D01*
X141441476Y-101956890D01*
X141320155Y-101727000D01*
X140127000Y-101727000D01*
X139873000Y-101727000D01*
X138679845Y-101727000D01*
X138558524Y-101956890D01*
X129488072Y-101956890D01*
X129488072Y-101150000D01*
X129475812Y-101025518D01*
X129439502Y-100905820D01*
X129380537Y-100795506D01*
X129301185Y-100698815D01*
X129204494Y-100619463D01*
X129094180Y-100560498D01*
X129021620Y-100538487D01*
X129153475Y-100406632D01*
X129315990Y-100163411D01*
X129427932Y-99893158D01*
X129485000Y-99606260D01*
X129485000Y-99313740D01*
X129427932Y-99026842D01*
X129315990Y-98756589D01*
X129153475Y-98513368D01*
X128946632Y-98306525D01*
X128772240Y-98190000D01*
X128946632Y-98073475D01*
X129153475Y-97866632D01*
X129315990Y-97623411D01*
X129427932Y-97353158D01*
X129485000Y-97066260D01*
X129485000Y-96773740D01*
X129427932Y-96486842D01*
X129315990Y-96216589D01*
X129153475Y-95973368D01*
X128946632Y-95766525D01*
X128772240Y-95650000D01*
X128946632Y-95533475D01*
X129153475Y-95326632D01*
X129315990Y-95083411D01*
X129427932Y-94813158D01*
X129485000Y-94526260D01*
X129485000Y-94233740D01*
X129427932Y-93946842D01*
X129315990Y-93676589D01*
X129153475Y-93433368D01*
X128946632Y-93226525D01*
X128772240Y-93110000D01*
X128946632Y-92993475D01*
X129153475Y-92786632D01*
X129315990Y-92543411D01*
X129427932Y-92273158D01*
X129485000Y-91986260D01*
X129485000Y-91693740D01*
X129427932Y-91406842D01*
X129315990Y-91136589D01*
X129153475Y-90893368D01*
X128946632Y-90686525D01*
X128802173Y-90590000D01*
X138511928Y-90590000D01*
X138511928Y-92290000D01*
X138524188Y-92414482D01*
X138560498Y-92534180D01*
X138619463Y-92644494D01*
X138698815Y-92741185D01*
X138795506Y-92820537D01*
X138905820Y-92879502D01*
X138978380Y-92901513D01*
X138846525Y-93033368D01*
X138684010Y-93276589D01*
X138572068Y-93546842D01*
X138515000Y-93833740D01*
X138515000Y-94126260D01*
X138572068Y-94413158D01*
X138684010Y-94683411D01*
X138846525Y-94926632D01*
X139053368Y-95133475D01*
X139227760Y-95250000D01*
X139053368Y-95366525D01*
X138846525Y-95573368D01*
X138684010Y-95816589D01*
X138572068Y-96086842D01*
X138515000Y-96373740D01*
X138515000Y-96666260D01*
X138572068Y-96953158D01*
X138684010Y-97223411D01*
X138846525Y-97466632D01*
X139053368Y-97673475D01*
X139227760Y-97790000D01*
X139053368Y-97906525D01*
X138846525Y-98113368D01*
X138684010Y-98356589D01*
X138572068Y-98626842D01*
X138515000Y-98913740D01*
X138515000Y-99206260D01*
X138572068Y-99493158D01*
X138684010Y-99763411D01*
X138846525Y-100006632D01*
X139053368Y-100213475D01*
X139235534Y-100335195D01*
X139118645Y-100404822D01*
X138902412Y-100599731D01*
X138728359Y-100833080D01*
X138603175Y-101095901D01*
X138558524Y-101243110D01*
X138679845Y-101473000D01*
X139873000Y-101473000D01*
X139873000Y-101453000D01*
X140127000Y-101453000D01*
X140127000Y-101473000D01*
X141320155Y-101473000D01*
X141441476Y-101243110D01*
X141396825Y-101095901D01*
X141271641Y-100833080D01*
X141097588Y-100599731D01*
X140881355Y-100404822D01*
X140764466Y-100335195D01*
X140946632Y-100213475D01*
X141153475Y-100006632D01*
X141315990Y-99763411D01*
X141427932Y-99493158D01*
X141485000Y-99206260D01*
X141485000Y-98913740D01*
X141427932Y-98626842D01*
X141315990Y-98356589D01*
X141153475Y-98113368D01*
X140946632Y-97906525D01*
X140772240Y-97790000D01*
X140946632Y-97673475D01*
X141153475Y-97466632D01*
X141315990Y-97223411D01*
X141427932Y-96953158D01*
X141485000Y-96666260D01*
X141485000Y-96373740D01*
X141427932Y-96086842D01*
X141315990Y-95816589D01*
X141153475Y-95573368D01*
X140946632Y-95366525D01*
X140772240Y-95250000D01*
X140946632Y-95133475D01*
X141153475Y-94926632D01*
X141315990Y-94683411D01*
X141427932Y-94413158D01*
X141485000Y-94126260D01*
X141485000Y-93833740D01*
X141427932Y-93546842D01*
X141315990Y-93276589D01*
X141153475Y-93033368D01*
X141021620Y-92901513D01*
X141094180Y-92879502D01*
X141204494Y-92820537D01*
X141301185Y-92741185D01*
X141380537Y-92644494D01*
X141439502Y-92534180D01*
X141475812Y-92414482D01*
X141488072Y-92290000D01*
X141488072Y-90590000D01*
X141475812Y-90465518D01*
X141439502Y-90345820D01*
X141380537Y-90235506D01*
X141301185Y-90138815D01*
X141204494Y-90059463D01*
X141094180Y-90000498D01*
X140974482Y-89964188D01*
X140850000Y-89951928D01*
X139150000Y-89951928D01*
X139025518Y-89964188D01*
X138905820Y-90000498D01*
X138795506Y-90059463D01*
X138698815Y-90138815D01*
X138619463Y-90235506D01*
X138560498Y-90345820D01*
X138524188Y-90465518D01*
X138511928Y-90590000D01*
X128802173Y-90590000D01*
X128772240Y-90570000D01*
X128946632Y-90453475D01*
X129153475Y-90246632D01*
X129315990Y-90003411D01*
X129427932Y-89733158D01*
X129485000Y-89446260D01*
X129485000Y-89153740D01*
X129427932Y-88866842D01*
X129315990Y-88596589D01*
X129153475Y-88353368D01*
X128946632Y-88146525D01*
X128772240Y-88030000D01*
X128946632Y-87913475D01*
X129153475Y-87706632D01*
X129315990Y-87463411D01*
X129427932Y-87193158D01*
X129485000Y-86906260D01*
X129485000Y-86613740D01*
X129427932Y-86326842D01*
X129315990Y-86056589D01*
X129153475Y-85813368D01*
X128946632Y-85606525D01*
X128772240Y-85490000D01*
X128946632Y-85373475D01*
X129153475Y-85166632D01*
X129315990Y-84923411D01*
X129427932Y-84653158D01*
X129485000Y-84366260D01*
X129485000Y-84073740D01*
X129427932Y-83786842D01*
X129315990Y-83516589D01*
X129153475Y-83273368D01*
X128946632Y-83066525D01*
X128772240Y-82950000D01*
X128946632Y-82833475D01*
X129153475Y-82626632D01*
X129315990Y-82383411D01*
X129427932Y-82113158D01*
X129485000Y-81826260D01*
X129485000Y-81533740D01*
X129427932Y-81246842D01*
X129315990Y-80976589D01*
X129153475Y-80733368D01*
X128946632Y-80526525D01*
X128772240Y-80410000D01*
X128946632Y-80293475D01*
X129153475Y-80086632D01*
X129315990Y-79843411D01*
X129427932Y-79573158D01*
X129485000Y-79286260D01*
X129485000Y-78993740D01*
X129427932Y-78706842D01*
X129315990Y-78436589D01*
X129153475Y-78193368D01*
X128946632Y-77986525D01*
X128703411Y-77824010D01*
X128475518Y-77729614D01*
X130394132Y-75811000D01*
X131664761Y-75811000D01*
X131799748Y-75945987D01*
X132067537Y-76124918D01*
X132365088Y-76248168D01*
X132680967Y-76311000D01*
X133003033Y-76311000D01*
X133318912Y-76248168D01*
X133616463Y-76124918D01*
X133884252Y-75945987D01*
X134111987Y-75718252D01*
X134290918Y-75450463D01*
X134414168Y-75152912D01*
X134477000Y-74837033D01*
X134477000Y-74514967D01*
X134414168Y-74199088D01*
X134290918Y-73901537D01*
X134111987Y-73633748D01*
X133884252Y-73406013D01*
X133616463Y-73227082D01*
X133318912Y-73103832D01*
X133003033Y-73041000D01*
X132680967Y-73041000D01*
X132365088Y-73103832D01*
X132067537Y-73227082D01*
X131799748Y-73406013D01*
X131664761Y-73541000D01*
X129979741Y-73541000D01*
X129923999Y-73535510D01*
X129868257Y-73541000D01*
X129868248Y-73541000D01*
X129701501Y-73557423D01*
X129487553Y-73622324D01*
X129290377Y-73727716D01*
X129117551Y-73869551D01*
X129082009Y-73912859D01*
X125339869Y-77655000D01*
X125313740Y-77655000D01*
X125026842Y-77712068D01*
X124756589Y-77824010D01*
X124513368Y-77986525D01*
X124306525Y-78193368D01*
X124144010Y-78436589D01*
X124032068Y-78706842D01*
X123975000Y-78993740D01*
X121127000Y-78993740D01*
X121127000Y-71508328D01*
X121140769Y-71403743D01*
X121177923Y-71314045D01*
X121237024Y-71237024D01*
X121314045Y-71177923D01*
X121403743Y-71140769D01*
X121508328Y-71127000D01*
X145340000Y-71127000D01*
X145340001Y-73032419D01*
G37*
%TD.AperFunction*%
D17*
X165723470Y-94975049D02*
X165751183Y-95008817D01*
X165784951Y-95036530D01*
X165784953Y-95036532D01*
X165842075Y-95083411D01*
X165885941Y-95119411D01*
X166039687Y-95201589D01*
X166206510Y-95252195D01*
X166336523Y-95265000D01*
X166336533Y-95265000D01*
X166379999Y-95269281D01*
X166423465Y-95265000D01*
X171265344Y-95265000D01*
X171306525Y-95326632D01*
X171513368Y-95533475D01*
X171687760Y-95650000D01*
X171513368Y-95766525D01*
X171306525Y-95973368D01*
X171144010Y-96216589D01*
X171032068Y-96486842D01*
X170975000Y-96773740D01*
X170975000Y-97066260D01*
X171032068Y-97353158D01*
X171144010Y-97623411D01*
X171306525Y-97866632D01*
X171513368Y-98073475D01*
X171687760Y-98190000D01*
X171513368Y-98306525D01*
X171306525Y-98513368D01*
X171144010Y-98756589D01*
X171032068Y-99026842D01*
X170975000Y-99313740D01*
X170975000Y-99606260D01*
X171032068Y-99893158D01*
X171144010Y-100163411D01*
X171306525Y-100406632D01*
X171513368Y-100613475D01*
X171695534Y-100735195D01*
X171578645Y-100804822D01*
X171362412Y-100999731D01*
X171188359Y-101233080D01*
X171063175Y-101495901D01*
X171018524Y-101643110D01*
X171139845Y-101873000D01*
X172333000Y-101873000D01*
X172333000Y-101853000D01*
X172587000Y-101853000D01*
X172587000Y-101873000D01*
X172607000Y-101873000D01*
X172607000Y-102127000D01*
X172587000Y-102127000D01*
X172587000Y-103320814D01*
X172816891Y-103441481D01*
X173091252Y-103344157D01*
X173341355Y-103195178D01*
X173537502Y-103018374D01*
X173560498Y-103094180D01*
X173619463Y-103204494D01*
X173698815Y-103301185D01*
X173795506Y-103380537D01*
X173905820Y-103439502D01*
X174025518Y-103475812D01*
X174115000Y-103484625D01*
X174115000Y-103633421D01*
X173633422Y-104115000D01*
X162866579Y-104115000D01*
X161763692Y-103012114D01*
X161763692Y-102356890D01*
X171018524Y-102356890D01*
X171063175Y-102504099D01*
X171188359Y-102766920D01*
X171362412Y-103000269D01*
X171578645Y-103195178D01*
X171828748Y-103344157D01*
X172103109Y-103441481D01*
X172333000Y-103320814D01*
X172333000Y-102127000D01*
X171139845Y-102127000D01*
X171018524Y-102356890D01*
X161763692Y-102356890D01*
X161763692Y-94457680D01*
X161795897Y-94409482D01*
X161873918Y-94221124D01*
X161913692Y-94021165D01*
X161913692Y-93817287D01*
X161873918Y-93617328D01*
X161795897Y-93428970D01*
X161766517Y-93385000D01*
X164133422Y-93385000D01*
X165723470Y-94975049D01*
%TA.AperFunction,Conductor*%
D18*
G36*
X165723470Y-94975049D02*
G01*
X165751183Y-95008817D01*
X165784951Y-95036530D01*
X165784953Y-95036532D01*
X165842075Y-95083411D01*
X165885941Y-95119411D01*
X166039687Y-95201589D01*
X166206510Y-95252195D01*
X166336523Y-95265000D01*
X166336533Y-95265000D01*
X166379999Y-95269281D01*
X166423465Y-95265000D01*
X171265344Y-95265000D01*
X171306525Y-95326632D01*
X171513368Y-95533475D01*
X171687760Y-95650000D01*
X171513368Y-95766525D01*
X171306525Y-95973368D01*
X171144010Y-96216589D01*
X171032068Y-96486842D01*
X170975000Y-96773740D01*
X170975000Y-97066260D01*
X171032068Y-97353158D01*
X171144010Y-97623411D01*
X171306525Y-97866632D01*
X171513368Y-98073475D01*
X171687760Y-98190000D01*
X171513368Y-98306525D01*
X171306525Y-98513368D01*
X171144010Y-98756589D01*
X171032068Y-99026842D01*
X170975000Y-99313740D01*
X170975000Y-99606260D01*
X171032068Y-99893158D01*
X171144010Y-100163411D01*
X171306525Y-100406632D01*
X171513368Y-100613475D01*
X171695534Y-100735195D01*
X171578645Y-100804822D01*
X171362412Y-100999731D01*
X171188359Y-101233080D01*
X171063175Y-101495901D01*
X171018524Y-101643110D01*
X171139845Y-101873000D01*
X172333000Y-101873000D01*
X172333000Y-101853000D01*
X172587000Y-101853000D01*
X172587000Y-101873000D01*
X172607000Y-101873000D01*
X172607000Y-102127000D01*
X172587000Y-102127000D01*
X172587000Y-103320814D01*
X172816891Y-103441481D01*
X173091252Y-103344157D01*
X173341355Y-103195178D01*
X173537502Y-103018374D01*
X173560498Y-103094180D01*
X173619463Y-103204494D01*
X173698815Y-103301185D01*
X173795506Y-103380537D01*
X173905820Y-103439502D01*
X174025518Y-103475812D01*
X174115000Y-103484625D01*
X174115000Y-103633421D01*
X173633422Y-104115000D01*
X162866579Y-104115000D01*
X161763692Y-103012114D01*
X161763692Y-102356890D01*
X171018524Y-102356890D01*
X171063175Y-102504099D01*
X171188359Y-102766920D01*
X171362412Y-103000269D01*
X171578645Y-103195178D01*
X171828748Y-103344157D01*
X172103109Y-103441481D01*
X172333000Y-103320814D01*
X172333000Y-102127000D01*
X171139845Y-102127000D01*
X171018524Y-102356890D01*
X161763692Y-102356890D01*
X161763692Y-94457680D01*
X161795897Y-94409482D01*
X161873918Y-94221124D01*
X161913692Y-94021165D01*
X161913692Y-93817287D01*
X161873918Y-93617328D01*
X161795897Y-93428970D01*
X161766517Y-93385000D01*
X164133422Y-93385000D01*
X165723470Y-94975049D01*
G37*
%TD.AperFunction*%
%TD*%
M02*
