%TF.GenerationSoftware,KiCad,Pcbnew,(5.1.7)-1*%
%TF.CreationDate,2020-11-01T18:22:08+02:00*%
%TF.ProjectId,Piirilevy_dsp,50696972-696c-4657-9679-5f6473702e6b,rev?*%
%TF.SameCoordinates,Original*%
%TF.FileFunction,Soldermask,Top*%
%TF.FilePolarity,Negative*%
%FSLAX46Y46*%
G04 Gerber Fmt 4.6, Leading zero omitted, Abs format (unit mm)*
G04 Created by KiCad (PCBNEW (5.1.7)-1) date 2020-11-01 18:22:08*
%MOMM*%
%LPD*%
G01*
G04 APERTURE LIST*
%ADD10R,0.800000X0.900000*%
%ADD11C,2.000000*%
%ADD12R,2.440000X1.120000*%
%ADD13O,1.700000X1.700000*%
%ADD14R,1.700000X1.700000*%
%ADD15C,0.100000*%
G04 APERTURE END LIST*
%TO.C,R1*%
G36*
G01*
X165425000Y-97237500D02*
X165425000Y-96762500D01*
G75*
G02*
X165662500Y-96525000I237500J0D01*
G01*
X166162500Y-96525000D01*
G75*
G02*
X166400000Y-96762500I0J-237500D01*
G01*
X166400000Y-97237500D01*
G75*
G02*
X166162500Y-97475000I-237500J0D01*
G01*
X165662500Y-97475000D01*
G75*
G02*
X165425000Y-97237500I0J237500D01*
G01*
G37*
G36*
G01*
X163600000Y-97237500D02*
X163600000Y-96762500D01*
G75*
G02*
X163837500Y-96525000I237500J0D01*
G01*
X164337500Y-96525000D01*
G75*
G02*
X164575000Y-96762500I0J-237500D01*
G01*
X164575000Y-97237500D01*
G75*
G02*
X164337500Y-97475000I-237500J0D01*
G01*
X163837500Y-97475000D01*
G75*
G02*
X163600000Y-97237500I0J237500D01*
G01*
G37*
%TD*%
%TO.C,R4*%
G36*
G01*
X135425000Y-89737500D02*
X135425000Y-89262500D01*
G75*
G02*
X135662500Y-89025000I237500J0D01*
G01*
X136162500Y-89025000D01*
G75*
G02*
X136400000Y-89262500I0J-237500D01*
G01*
X136400000Y-89737500D01*
G75*
G02*
X136162500Y-89975000I-237500J0D01*
G01*
X135662500Y-89975000D01*
G75*
G02*
X135425000Y-89737500I0J237500D01*
G01*
G37*
G36*
G01*
X133600000Y-89737500D02*
X133600000Y-89262500D01*
G75*
G02*
X133837500Y-89025000I237500J0D01*
G01*
X134337500Y-89025000D01*
G75*
G02*
X134575000Y-89262500I0J-237500D01*
G01*
X134575000Y-89737500D01*
G75*
G02*
X134337500Y-89975000I-237500J0D01*
G01*
X133837500Y-89975000D01*
G75*
G02*
X133600000Y-89737500I0J237500D01*
G01*
G37*
%TD*%
%TO.C,R3*%
G36*
G01*
X165425000Y-94237500D02*
X165425000Y-93762500D01*
G75*
G02*
X165662500Y-93525000I237500J0D01*
G01*
X166162500Y-93525000D01*
G75*
G02*
X166400000Y-93762500I0J-237500D01*
G01*
X166400000Y-94237500D01*
G75*
G02*
X166162500Y-94475000I-237500J0D01*
G01*
X165662500Y-94475000D01*
G75*
G02*
X165425000Y-94237500I0J237500D01*
G01*
G37*
G36*
G01*
X163600000Y-94237500D02*
X163600000Y-93762500D01*
G75*
G02*
X163837500Y-93525000I237500J0D01*
G01*
X164337500Y-93525000D01*
G75*
G02*
X164575000Y-93762500I0J-237500D01*
G01*
X164575000Y-94237500D01*
G75*
G02*
X164337500Y-94475000I-237500J0D01*
G01*
X163837500Y-94475000D01*
G75*
G02*
X163600000Y-94237500I0J237500D01*
G01*
G37*
%TD*%
%TO.C,R2*%
G36*
G01*
X165425000Y-95737500D02*
X165425000Y-95262500D01*
G75*
G02*
X165662500Y-95025000I237500J0D01*
G01*
X166162500Y-95025000D01*
G75*
G02*
X166400000Y-95262500I0J-237500D01*
G01*
X166400000Y-95737500D01*
G75*
G02*
X166162500Y-95975000I-237500J0D01*
G01*
X165662500Y-95975000D01*
G75*
G02*
X165425000Y-95737500I0J237500D01*
G01*
G37*
G36*
G01*
X163600000Y-95737500D02*
X163600000Y-95262500D01*
G75*
G02*
X163837500Y-95025000I237500J0D01*
G01*
X164337500Y-95025000D01*
G75*
G02*
X164575000Y-95262500I0J-237500D01*
G01*
X164575000Y-95737500D01*
G75*
G02*
X164337500Y-95975000I-237500J0D01*
G01*
X163837500Y-95975000D01*
G75*
G02*
X163600000Y-95737500I0J237500D01*
G01*
G37*
%TD*%
D10*
%TO.C,Q1*%
X165000000Y-90000000D03*
X165950000Y-92000000D03*
X164050000Y-92000000D03*
%TD*%
%TO.C,D2*%
G36*
G01*
X135625000Y-88075000D02*
X135625000Y-86925000D01*
G75*
G02*
X135875000Y-86675000I250000J0D01*
G01*
X136975000Y-86675000D01*
G75*
G02*
X137225000Y-86925000I0J-250000D01*
G01*
X137225000Y-88075000D01*
G75*
G02*
X136975000Y-88325000I-250000J0D01*
G01*
X135875000Y-88325000D01*
G75*
G02*
X135625000Y-88075000I0J250000D01*
G01*
G37*
G36*
G01*
X132775000Y-88075000D02*
X132775000Y-86925000D01*
G75*
G02*
X133025000Y-86675000I250000J0D01*
G01*
X134125000Y-86675000D01*
G75*
G02*
X134375000Y-86925000I0J-250000D01*
G01*
X134375000Y-88075000D01*
G75*
G02*
X134125000Y-88325000I-250000J0D01*
G01*
X133025000Y-88325000D01*
G75*
G02*
X132775000Y-88075000I0J250000D01*
G01*
G37*
%TD*%
%TO.C,D1*%
G36*
G01*
X165625000Y-88075000D02*
X165625000Y-86925000D01*
G75*
G02*
X165875000Y-86675000I250000J0D01*
G01*
X166975000Y-86675000D01*
G75*
G02*
X167225000Y-86925000I0J-250000D01*
G01*
X167225000Y-88075000D01*
G75*
G02*
X166975000Y-88325000I-250000J0D01*
G01*
X165875000Y-88325000D01*
G75*
G02*
X165625000Y-88075000I0J250000D01*
G01*
G37*
G36*
G01*
X162775000Y-88075000D02*
X162775000Y-86925000D01*
G75*
G02*
X163025000Y-86675000I250000J0D01*
G01*
X164125000Y-86675000D01*
G75*
G02*
X164375000Y-86925000I0J-250000D01*
G01*
X164375000Y-88075000D01*
G75*
G02*
X164125000Y-88325000I-250000J0D01*
G01*
X163025000Y-88325000D01*
G75*
G02*
X162775000Y-88075000I0J250000D01*
G01*
G37*
%TD*%
D11*
%TO.C,TP1*%
X132842000Y-74676000D03*
%TD*%
D12*
%TO.C,SW1*%
X168135000Y-75565000D03*
X159525000Y-78105000D03*
X168135000Y-78105000D03*
X159525000Y-75565000D03*
%TD*%
D13*
%TO.C,J4*%
X154000000Y-101600000D03*
X154000000Y-99060000D03*
X154000000Y-96520000D03*
X154000000Y-93980000D03*
D14*
X154000000Y-91440000D03*
%TD*%
D13*
%TO.C,J3*%
X140000000Y-101600000D03*
X140000000Y-99060000D03*
X140000000Y-96520000D03*
X140000000Y-93980000D03*
D14*
X140000000Y-91440000D03*
%TD*%
D15*
%TO.C,JP1*%
G36*
X164350000Y-102749398D02*
G01*
X164325466Y-102749398D01*
X164276635Y-102744588D01*
X164228510Y-102735016D01*
X164181555Y-102720772D01*
X164136222Y-102701995D01*
X164092949Y-102678864D01*
X164052150Y-102651604D01*
X164014221Y-102620476D01*
X163979524Y-102585779D01*
X163948396Y-102547850D01*
X163921136Y-102507051D01*
X163898005Y-102463778D01*
X163879228Y-102418445D01*
X163864984Y-102371490D01*
X163855412Y-102323365D01*
X163850602Y-102274534D01*
X163850602Y-102250000D01*
X163850000Y-102250000D01*
X163850000Y-101750000D01*
X163850602Y-101750000D01*
X163850602Y-101725466D01*
X163855412Y-101676635D01*
X163864984Y-101628510D01*
X163879228Y-101581555D01*
X163898005Y-101536222D01*
X163921136Y-101492949D01*
X163948396Y-101452150D01*
X163979524Y-101414221D01*
X164014221Y-101379524D01*
X164052150Y-101348396D01*
X164092949Y-101321136D01*
X164136222Y-101298005D01*
X164181555Y-101279228D01*
X164228510Y-101264984D01*
X164276635Y-101255412D01*
X164325466Y-101250602D01*
X164350000Y-101250602D01*
X164350000Y-101250000D01*
X164850000Y-101250000D01*
X164850000Y-102750000D01*
X164350000Y-102750000D01*
X164350000Y-102749398D01*
G37*
G36*
X165150000Y-101250000D02*
G01*
X165650000Y-101250000D01*
X165650000Y-101250602D01*
X165674534Y-101250602D01*
X165723365Y-101255412D01*
X165771490Y-101264984D01*
X165818445Y-101279228D01*
X165863778Y-101298005D01*
X165907051Y-101321136D01*
X165947850Y-101348396D01*
X165985779Y-101379524D01*
X166020476Y-101414221D01*
X166051604Y-101452150D01*
X166078864Y-101492949D01*
X166101995Y-101536222D01*
X166120772Y-101581555D01*
X166135016Y-101628510D01*
X166144588Y-101676635D01*
X166149398Y-101725466D01*
X166149398Y-101750000D01*
X166150000Y-101750000D01*
X166150000Y-102250000D01*
X166149398Y-102250000D01*
X166149398Y-102274534D01*
X166144588Y-102323365D01*
X166135016Y-102371490D01*
X166120772Y-102418445D01*
X166101995Y-102463778D01*
X166078864Y-102507051D01*
X166051604Y-102547850D01*
X166020476Y-102585779D01*
X165985779Y-102620476D01*
X165947850Y-102651604D01*
X165907051Y-102678864D01*
X165863778Y-102701995D01*
X165818445Y-102720772D01*
X165771490Y-102735016D01*
X165723365Y-102744588D01*
X165674534Y-102749398D01*
X165650000Y-102749398D01*
X165650000Y-102750000D01*
X165150000Y-102750000D01*
X165150000Y-101250000D01*
G37*
%TD*%
D13*
%TO.C,J2*%
X172460000Y-79140000D03*
X175000000Y-79140000D03*
X172460000Y-81680000D03*
X175000000Y-81680000D03*
X172460000Y-84220000D03*
X175000000Y-84220000D03*
X172460000Y-86760000D03*
X175000000Y-86760000D03*
X172460000Y-89300000D03*
X175000000Y-89300000D03*
X172460000Y-91840000D03*
X175000000Y-91840000D03*
X172460000Y-94380000D03*
X175000000Y-94380000D03*
X172460000Y-96920000D03*
X175000000Y-96920000D03*
X172460000Y-99460000D03*
X175000000Y-99460000D03*
X172460000Y-102000000D03*
D14*
X175000000Y-102000000D03*
%TD*%
D13*
%TO.C,J1*%
X125460000Y-79140000D03*
X128000000Y-79140000D03*
X125460000Y-81680000D03*
X128000000Y-81680000D03*
X125460000Y-84220000D03*
X128000000Y-84220000D03*
X125460000Y-86760000D03*
X128000000Y-86760000D03*
X125460000Y-89300000D03*
X128000000Y-89300000D03*
X125460000Y-91840000D03*
X128000000Y-91840000D03*
X125460000Y-94380000D03*
X128000000Y-94380000D03*
X125460000Y-96920000D03*
X128000000Y-96920000D03*
X125460000Y-99460000D03*
X128000000Y-99460000D03*
X125460000Y-102000000D03*
D14*
X128000000Y-102000000D03*
%TD*%
M02*
