%TF.GenerationSoftware,KiCad,Pcbnew,(5.1.7)-1*%
%TF.CreationDate,2020-11-01T18:22:08+02:00*%
%TF.ProjectId,Piirilevy_dsp,50696972-696c-4657-9679-5f6473702e6b,rev?*%
%TF.SameCoordinates,Original*%
%TF.FileFunction,Soldermask,Bot*%
%TF.FilePolarity,Negative*%
%FSLAX46Y46*%
G04 Gerber Fmt 4.6, Leading zero omitted, Abs format (unit mm)*
G04 Created by KiCad (PCBNEW (5.1.7)-1) date 2020-11-01 18:22:08*
%MOMM*%
%LPD*%
G01*
G04 APERTURE LIST*
%ADD10C,2.000000*%
%ADD11O,1.700000X1.700000*%
%ADD12R,1.700000X1.700000*%
G04 APERTURE END LIST*
D10*
%TO.C,TP1*%
X132842000Y-74676000D03*
%TD*%
D11*
%TO.C,J4*%
X154000000Y-101600000D03*
X154000000Y-99060000D03*
X154000000Y-96520000D03*
X154000000Y-93980000D03*
D12*
X154000000Y-91440000D03*
%TD*%
D11*
%TO.C,J3*%
X140000000Y-101600000D03*
X140000000Y-99060000D03*
X140000000Y-96520000D03*
X140000000Y-93980000D03*
D12*
X140000000Y-91440000D03*
%TD*%
D11*
%TO.C,J2*%
X172460000Y-79140000D03*
X175000000Y-79140000D03*
X172460000Y-81680000D03*
X175000000Y-81680000D03*
X172460000Y-84220000D03*
X175000000Y-84220000D03*
X172460000Y-86760000D03*
X175000000Y-86760000D03*
X172460000Y-89300000D03*
X175000000Y-89300000D03*
X172460000Y-91840000D03*
X175000000Y-91840000D03*
X172460000Y-94380000D03*
X175000000Y-94380000D03*
X172460000Y-96920000D03*
X175000000Y-96920000D03*
X172460000Y-99460000D03*
X175000000Y-99460000D03*
X172460000Y-102000000D03*
D12*
X175000000Y-102000000D03*
%TD*%
D11*
%TO.C,J1*%
X125460000Y-79140000D03*
X128000000Y-79140000D03*
X125460000Y-81680000D03*
X128000000Y-81680000D03*
X125460000Y-84220000D03*
X128000000Y-84220000D03*
X125460000Y-86760000D03*
X128000000Y-86760000D03*
X125460000Y-89300000D03*
X128000000Y-89300000D03*
X125460000Y-91840000D03*
X128000000Y-91840000D03*
X125460000Y-94380000D03*
X128000000Y-94380000D03*
X125460000Y-96920000D03*
X128000000Y-96920000D03*
X125460000Y-99460000D03*
X128000000Y-99460000D03*
X125460000Y-102000000D03*
D12*
X128000000Y-102000000D03*
%TD*%
M02*
