M48
; DRILL file {KiCad (5.1.7)-1} date 11/01/20 18:24:04
; FORMAT={-:-/ absolute / inch / decimal}
; #@! TF.CreationDate,2020-11-01T18:24:04+02:00
; #@! TF.GenerationSoftware,Kicad,Pcbnew,(5.1.7)-1
FMAT,2
INCH
T1C0.0157
T2C0.0394
%
G90
G05
T1
X5.7874Y-2.9528
X5.7874Y-2.9921
X5.7874Y-3.0315
X5.7874Y-3.0709
X5.7874Y-4.0157
X5.7874Y-4.0551
X5.7874Y-4.0945
X5.7874Y-4.1339
X6.2402Y-3.622
X6.3338Y-3.6976
X6.5748Y-3.5236
X6.6929Y-3.765
T2
X5.23Y-2.94
X6.7898Y-3.1157
X6.7898Y-3.2157
X6.7898Y-3.3157
X6.7898Y-3.4157
X6.7898Y-3.5157
X6.7898Y-3.6157
X6.7898Y-3.7157
X6.7898Y-3.8157
X6.7898Y-3.9157
X6.7898Y-4.0157
X6.8898Y-3.1157
X6.8898Y-3.2157
X6.8898Y-3.3157
X6.8898Y-3.4157
X6.8898Y-3.5157
X6.8898Y-3.6157
X6.8898Y-3.7157
X6.8898Y-3.8157
X6.8898Y-3.9157
X6.8898Y-4.0157
X4.9394Y-3.1157
X4.9394Y-3.2157
X4.9394Y-3.3157
X4.9394Y-3.4157
X4.9394Y-3.5157
X4.9394Y-3.6157
X4.9394Y-3.7157
X4.9394Y-3.8157
X4.9394Y-3.9157
X4.9394Y-4.0157
X5.0394Y-3.1157
X5.0394Y-3.2157
X5.0394Y-3.3157
X5.0394Y-3.4157
X5.0394Y-3.5157
X5.0394Y-3.6157
X5.0394Y-3.7157
X5.0394Y-3.8157
X5.0394Y-3.9157
X5.0394Y-4.0157
X5.5118Y-3.6
X5.5118Y-3.7
X5.5118Y-3.8
X5.5118Y-3.9
X5.5118Y-4.0
X6.063Y-3.6
X6.063Y-3.7
X6.063Y-3.8
X6.063Y-3.9
X6.063Y-4.0
T0
M30
