%TF.GenerationSoftware,KiCad,Pcbnew,(5.1.7)-1*%
%TF.CreationDate,2020-11-01T18:22:08+02:00*%
%TF.ProjectId,Piirilevy_dsp,50696972-696c-4657-9679-5f6473702e6b,rev?*%
%TF.SameCoordinates,Original*%
%TF.FileFunction,Paste,Top*%
%TF.FilePolarity,Positive*%
%FSLAX46Y46*%
G04 Gerber Fmt 4.6, Leading zero omitted, Abs format (unit mm)*
G04 Created by KiCad (PCBNEW (5.1.7)-1) date 2020-11-01 18:22:08*
%MOMM*%
%LPD*%
G01*
G04 APERTURE LIST*
%ADD10R,0.800000X0.900000*%
%ADD11R,2.440000X1.120000*%
G04 APERTURE END LIST*
%TO.C,R1*%
G36*
G01*
X165425000Y-97237500D02*
X165425000Y-96762500D01*
G75*
G02*
X165662500Y-96525000I237500J0D01*
G01*
X166162500Y-96525000D01*
G75*
G02*
X166400000Y-96762500I0J-237500D01*
G01*
X166400000Y-97237500D01*
G75*
G02*
X166162500Y-97475000I-237500J0D01*
G01*
X165662500Y-97475000D01*
G75*
G02*
X165425000Y-97237500I0J237500D01*
G01*
G37*
G36*
G01*
X163600000Y-97237500D02*
X163600000Y-96762500D01*
G75*
G02*
X163837500Y-96525000I237500J0D01*
G01*
X164337500Y-96525000D01*
G75*
G02*
X164575000Y-96762500I0J-237500D01*
G01*
X164575000Y-97237500D01*
G75*
G02*
X164337500Y-97475000I-237500J0D01*
G01*
X163837500Y-97475000D01*
G75*
G02*
X163600000Y-97237500I0J237500D01*
G01*
G37*
%TD*%
%TO.C,R4*%
G36*
G01*
X135425000Y-89737500D02*
X135425000Y-89262500D01*
G75*
G02*
X135662500Y-89025000I237500J0D01*
G01*
X136162500Y-89025000D01*
G75*
G02*
X136400000Y-89262500I0J-237500D01*
G01*
X136400000Y-89737500D01*
G75*
G02*
X136162500Y-89975000I-237500J0D01*
G01*
X135662500Y-89975000D01*
G75*
G02*
X135425000Y-89737500I0J237500D01*
G01*
G37*
G36*
G01*
X133600000Y-89737500D02*
X133600000Y-89262500D01*
G75*
G02*
X133837500Y-89025000I237500J0D01*
G01*
X134337500Y-89025000D01*
G75*
G02*
X134575000Y-89262500I0J-237500D01*
G01*
X134575000Y-89737500D01*
G75*
G02*
X134337500Y-89975000I-237500J0D01*
G01*
X133837500Y-89975000D01*
G75*
G02*
X133600000Y-89737500I0J237500D01*
G01*
G37*
%TD*%
%TO.C,R3*%
G36*
G01*
X165425000Y-94237500D02*
X165425000Y-93762500D01*
G75*
G02*
X165662500Y-93525000I237500J0D01*
G01*
X166162500Y-93525000D01*
G75*
G02*
X166400000Y-93762500I0J-237500D01*
G01*
X166400000Y-94237500D01*
G75*
G02*
X166162500Y-94475000I-237500J0D01*
G01*
X165662500Y-94475000D01*
G75*
G02*
X165425000Y-94237500I0J237500D01*
G01*
G37*
G36*
G01*
X163600000Y-94237500D02*
X163600000Y-93762500D01*
G75*
G02*
X163837500Y-93525000I237500J0D01*
G01*
X164337500Y-93525000D01*
G75*
G02*
X164575000Y-93762500I0J-237500D01*
G01*
X164575000Y-94237500D01*
G75*
G02*
X164337500Y-94475000I-237500J0D01*
G01*
X163837500Y-94475000D01*
G75*
G02*
X163600000Y-94237500I0J237500D01*
G01*
G37*
%TD*%
%TO.C,R2*%
G36*
G01*
X165425000Y-95737500D02*
X165425000Y-95262500D01*
G75*
G02*
X165662500Y-95025000I237500J0D01*
G01*
X166162500Y-95025000D01*
G75*
G02*
X166400000Y-95262500I0J-237500D01*
G01*
X166400000Y-95737500D01*
G75*
G02*
X166162500Y-95975000I-237500J0D01*
G01*
X165662500Y-95975000D01*
G75*
G02*
X165425000Y-95737500I0J237500D01*
G01*
G37*
G36*
G01*
X163600000Y-95737500D02*
X163600000Y-95262500D01*
G75*
G02*
X163837500Y-95025000I237500J0D01*
G01*
X164337500Y-95025000D01*
G75*
G02*
X164575000Y-95262500I0J-237500D01*
G01*
X164575000Y-95737500D01*
G75*
G02*
X164337500Y-95975000I-237500J0D01*
G01*
X163837500Y-95975000D01*
G75*
G02*
X163600000Y-95737500I0J237500D01*
G01*
G37*
%TD*%
D10*
%TO.C,Q1*%
X165000000Y-90000000D03*
X165950000Y-92000000D03*
X164050000Y-92000000D03*
%TD*%
%TO.C,D2*%
G36*
G01*
X135625000Y-88075000D02*
X135625000Y-86925000D01*
G75*
G02*
X135875000Y-86675000I250000J0D01*
G01*
X136975000Y-86675000D01*
G75*
G02*
X137225000Y-86925000I0J-250000D01*
G01*
X137225000Y-88075000D01*
G75*
G02*
X136975000Y-88325000I-250000J0D01*
G01*
X135875000Y-88325000D01*
G75*
G02*
X135625000Y-88075000I0J250000D01*
G01*
G37*
G36*
G01*
X132775000Y-88075000D02*
X132775000Y-86925000D01*
G75*
G02*
X133025000Y-86675000I250000J0D01*
G01*
X134125000Y-86675000D01*
G75*
G02*
X134375000Y-86925000I0J-250000D01*
G01*
X134375000Y-88075000D01*
G75*
G02*
X134125000Y-88325000I-250000J0D01*
G01*
X133025000Y-88325000D01*
G75*
G02*
X132775000Y-88075000I0J250000D01*
G01*
G37*
%TD*%
%TO.C,D1*%
G36*
G01*
X165625000Y-88075000D02*
X165625000Y-86925000D01*
G75*
G02*
X165875000Y-86675000I250000J0D01*
G01*
X166975000Y-86675000D01*
G75*
G02*
X167225000Y-86925000I0J-250000D01*
G01*
X167225000Y-88075000D01*
G75*
G02*
X166975000Y-88325000I-250000J0D01*
G01*
X165875000Y-88325000D01*
G75*
G02*
X165625000Y-88075000I0J250000D01*
G01*
G37*
G36*
G01*
X162775000Y-88075000D02*
X162775000Y-86925000D01*
G75*
G02*
X163025000Y-86675000I250000J0D01*
G01*
X164125000Y-86675000D01*
G75*
G02*
X164375000Y-86925000I0J-250000D01*
G01*
X164375000Y-88075000D01*
G75*
G02*
X164125000Y-88325000I-250000J0D01*
G01*
X163025000Y-88325000D01*
G75*
G02*
X162775000Y-88075000I0J250000D01*
G01*
G37*
%TD*%
D11*
%TO.C,SW1*%
X168135000Y-75565000D03*
X159525000Y-78105000D03*
X168135000Y-78105000D03*
X159525000Y-75565000D03*
%TD*%
M02*
