%TF.GenerationSoftware,KiCad,Pcbnew,(5.1.7)-1*%
%TF.CreationDate,2020-11-01T18:22:08+02:00*%
%TF.ProjectId,Piirilevy_dsp,50696972-696c-4657-9679-5f6473702e6b,rev?*%
%TF.SameCoordinates,Original*%
%TF.FileFunction,Legend,Bot*%
%TF.FilePolarity,Positive*%
%FSLAX46Y46*%
G04 Gerber Fmt 4.6, Leading zero omitted, Abs format (unit mm)*
G04 Created by KiCad (PCBNEW (5.1.7)-1) date 2020-11-01 18:22:08*
%MOMM*%
%LPD*%
G01*
G04 APERTURE LIST*
%ADD10C,0.120000*%
%ADD11C,0.150000*%
G04 APERTURE END LIST*
D10*
%TO.C,J2*%
X175000000Y-103330000D02*
X176330000Y-103330000D01*
X176330000Y-103330000D02*
X176330000Y-102000000D01*
X173730000Y-103330000D02*
X173730000Y-100730000D01*
X173730000Y-100730000D02*
X176330000Y-100730000D01*
X176330000Y-100730000D02*
X176330000Y-77810000D01*
X171130000Y-77810000D02*
X176330000Y-77810000D01*
X171130000Y-103330000D02*
X171130000Y-77810000D01*
X171130000Y-103330000D02*
X173730000Y-103330000D01*
%TO.C,J1*%
X128000000Y-103330000D02*
X129330000Y-103330000D01*
X129330000Y-103330000D02*
X129330000Y-102000000D01*
X126730000Y-103330000D02*
X126730000Y-100730000D01*
X126730000Y-100730000D02*
X129330000Y-100730000D01*
X129330000Y-100730000D02*
X129330000Y-77810000D01*
X124130000Y-77810000D02*
X129330000Y-77810000D01*
X124130000Y-103330000D02*
X124130000Y-77810000D01*
X124130000Y-103330000D02*
X126730000Y-103330000D01*
%TO.C,J2*%
D11*
X174063333Y-104222380D02*
X174063333Y-104936666D01*
X174110952Y-105079523D01*
X174206190Y-105174761D01*
X174349047Y-105222380D01*
X174444285Y-105222380D01*
X173634761Y-104317619D02*
X173587142Y-104270000D01*
X173491904Y-104222380D01*
X173253809Y-104222380D01*
X173158571Y-104270000D01*
X173110952Y-104317619D01*
X173063333Y-104412857D01*
X173063333Y-104508095D01*
X173110952Y-104650952D01*
X173682380Y-105222380D01*
X173063333Y-105222380D01*
%TO.C,J1*%
X127063333Y-104222380D02*
X127063333Y-104936666D01*
X127110952Y-105079523D01*
X127206190Y-105174761D01*
X127349047Y-105222380D01*
X127444285Y-105222380D01*
X126063333Y-105222380D02*
X126634761Y-105222380D01*
X126349047Y-105222380D02*
X126349047Y-104222380D01*
X126444285Y-104365238D01*
X126539523Y-104460476D01*
X126634761Y-104508095D01*
%TD*%
M02*
