%TF.GenerationSoftware,KiCad,Pcbnew,(5.1.7)-1*%
%TF.CreationDate,2020-11-01T18:22:08+02:00*%
%TF.ProjectId,Piirilevy_dsp,50696972-696c-4657-9679-5f6473702e6b,rev?*%
%TF.SameCoordinates,Original*%
%TF.FileFunction,Profile,NP*%
%FSLAX46Y46*%
G04 Gerber Fmt 4.6, Leading zero omitted, Abs format (unit mm)*
G04 Created by KiCad (PCBNEW (5.1.7)-1) date 2020-11-01 18:22:08*
%MOMM*%
%LPD*%
G01*
G04 APERTURE LIST*
%TA.AperFunction,Profile*%
%ADD10C,0.050000*%
%TD*%
G04 APERTURE END LIST*
D10*
X146000000Y-80000000D02*
G75*
G02*
X148000000Y-80000000I1000000J0D01*
G01*
X148000000Y-100000000D02*
G75*
G02*
X146000000Y-100000000I-1000000J0D01*
G01*
X146000000Y-107000000D02*
G75*
G02*
X148000000Y-107000000I1000000J0D01*
G01*
X149000000Y-110000000D02*
G75*
G02*
X148000000Y-109000000I0J1000000D01*
G01*
X146000000Y-109000000D02*
G75*
G02*
X145000000Y-110000000I-1000000J0D01*
G01*
X148000000Y-73000000D02*
G75*
G02*
X146000000Y-73000000I-1000000J0D01*
G01*
X145000000Y-70000000D02*
G75*
G02*
X146000000Y-71000000I0J-1000000D01*
G01*
X148000000Y-71000000D02*
G75*
G02*
X149000000Y-70000000I1000000J0D01*
G01*
X148000000Y-107000000D02*
X148000000Y-109000000D01*
X146000000Y-109000000D02*
X146000000Y-107000000D01*
X148000000Y-71000000D02*
X148000000Y-73000000D01*
X146000000Y-71000000D02*
X146000000Y-73000000D01*
X148000000Y-80000000D02*
X148000000Y-100000000D01*
X146000000Y-80000000D02*
X146000000Y-100000000D01*
X145000000Y-110000000D02*
X121000000Y-110000000D01*
X149000000Y-70000000D02*
X179000000Y-70000000D01*
X121000000Y-110000000D02*
G75*
G02*
X120000000Y-109000000I0J1000000D01*
G01*
X180000000Y-109000000D02*
G75*
G02*
X179000000Y-110000000I-1000000J0D01*
G01*
X179000000Y-70000000D02*
G75*
G02*
X180000000Y-71000000I0J-1000000D01*
G01*
X120000000Y-71000000D02*
G75*
G02*
X121000000Y-70000000I1000000J0D01*
G01*
X120000000Y-109000000D02*
X120000000Y-71000000D01*
X179000000Y-110000000D02*
X149000000Y-110000000D01*
X180000000Y-71000000D02*
X180000000Y-109000000D01*
X121000000Y-70000000D02*
X145000000Y-70000000D01*
M02*
